<svg version="1.1" viewBox="0.0 0.0 958.6666666666666 480.6509186351706" fill="none" stroke="none" stroke-linecap="square" stroke-miterlimit="10" xmlns:xlink="http://www.w3.org/1999/xlink" xmlns="http://www.w3.org/2000/svg"><clipPath id="p.0"><path d="m0 0l958.6667 0l0 480.6509l-958.6667 0l0 -480.6509z" clip-rule="nonzero"/></clipPath><g clip-path="url(#p.0)"><path fill="#000000" fill-opacity="0.0" d="m0 0l958.6667 0l0 480.6509l-958.6667 0z" fill-rule="evenodd"/><path fill="#000000" fill-opacity="0.0" d="m188.87665 9.463255l580.9134 0l0 184.69292l-580.9134 0z" fill-rule="evenodd"/><path stroke="#000000" stroke-width="2.0" stroke-linejoin="round" stroke-linecap="butt" d="m188.87665 9.463255l580.9134 0l0 184.69292l-580.9134 0z" fill-rule="evenodd"/><path fill="#000000" d="m202.7204 34.010754q-2.84375 0 -4.5 -1.6875l1.21875 -1.7343731q0.5625 0.59375 1.421875 1.015625q0.875 0.4218731 1.96875 0.4218731q0.953125 0 1.40625 -0.3593731q0.453125 -0.359375 0.453125 -0.8125q0 -0.484375 -0.53125 -0.75q-0.515625 -0.28125 -2.53125 -0.765625q-3.078125 -0.734375 -3.078125 -3.09375q0 -1.375 1.109375 -2.3125q1.109375 -0.9375 2.9375 -0.9375q2.546875 0 4.15625 1.484375l-1.265625 1.65625q-1.25 -1.15625 -3.09375 -1.15625q-0.734375 0 -1.140625 0.296875q-0.390625 0.296875 -0.390625 0.765625q0 0.421875 0.453125 0.65625q0.46875 0.234375 1.15625 0.390625l1.46875 0.359375q3.0625 0.796875 3.0625 3.140625q0 1.5937481 -1.140625 2.515623q-1.140625 0.90625 -3.140625 0.90625zm9.365646 0q-1.828125 0 -2.96875 -1.140625q-1.125 -1.1562481 -1.125 -2.921873q0 -1.734375 1.125 -2.890625q1.140625 -1.15625 2.96875 -1.15625q1.1875 0 1.921875 0.4375q0.75 0.421875 1.125 0.953125l-1.3125 1.25q-0.5625 -0.828125 -1.640625 -0.828125q-0.921875 0 -1.515625 0.625q-0.578125 0.609375 -0.578125 1.609375q0 1.015625 0.578125 1.640625q0.59375 0.6249981 1.515625 0.6249981q1.046875 0 1.640625 -0.8437481l1.3125 1.2343731q-0.375 0.546875 -1.125 0.984375q-0.734375 0.421875 -1.921875 0.421875zm4.390259 -0.1875l0 -7.734373l2.03125 0l0 1.0625q0.40625 -0.515625 1.0625 -0.875q0.671875 -0.375 1.390625 -0.375l0 1.984375l-0.5625 -0.046875q-0.53125 0 -1.09375 0.265625q-0.546875 0.25 -0.796875 0.609375l0 5.109373l-2.03125 0zm6.76001 -8.562498q-0.5 0 -0.859375 -0.34375q-0.359375 -0.359375 -0.359375 -0.875q0 -0.5 0.359375 -0.84375q0.359375 -0.34375 0.859375 -0.34375q0.515625 0 0.859375 0.34375q0.359375 0.34375 0.359375 0.84375q0 0.515625 -0.359375 0.875q-0.34375 0.34375 -0.859375 0.34375zm-1.0 8.562498l0 -7.734373l2.03125 0l0 7.734373l-2.03125 0zm8.454254 0.1875q-1.484375 0 -2.375 -1.171875l0 3.921875l-2.03125 0l0 -10.671873l2.03125 0l0 0.984375q0.921875 -1.171875 2.375 -1.171875q1.53125 0 2.46875 1.078125q0.953125 1.078125 0.953125 2.96875q0 1.859375 -0.9375 2.968748q-0.9375 1.09375 -2.484375 1.09375zm-0.640625 -1.796875q0.875 0 1.40625 -0.6249981q0.546875 -0.625 0.546875 -1.640625q0 -1.0 -0.546875 -1.609375q-0.53125 -0.625 -1.40625 -0.625q-0.5 0 -1.0 0.265625q-0.484375 0.25 -0.734375 0.609375l0 2.734375q0.25 0.375 0.734375 0.640625q0.5 0.2499981 1.0 0.2499981zm8.140518 1.796875q-2.1875 0 -2.1875 -2.109373l0 -4.03125l-1.28125 0l0 -1.78125l1.28125 0l0 -2.109375l2.046875 0l0 2.109375l1.578125 0l0 1.78125l-1.578125 0l0 3.484375q0 0.375 0.1875 0.625q0.1875 0.2343731 0.515625 0.2343731q0.484375 0 0.703125 -0.2343731l0.4375 1.5468731q-0.53125 0.484375 -1.703125 0.484375zm9.816513 -0.1875l0.921875 -2.703123l-1.515625 0l-0.90625 2.703123l-1.515625 0l0.921875 -2.703123l-1.546875 0l0.421875 -1.296875l1.5625 0l0.875 -2.65625l-1.578125 0l0.40625 -1.28125l1.609375 0l0.90625 -2.734375l1.5 0l-0.890625 2.734375l1.5 0l0.890625 -2.734375l1.515625 0l-0.921875 2.734375l1.546875 0l-0.375 1.28125l-1.609375 0l-0.875 2.65625l1.625 0l-0.40625 1.296875l-1.65625 0l-0.890625 2.703123l-1.515625 0zm2.21875 -6.656248l-1.5 0l-0.859375 2.65625l1.484375 0l0.875 -2.65625zm7.0130157 6.656248l0 -7.749998l-1.78125 1.8125l-1.296875 -1.359375l3.359375 -3.375l1.984375 0l0 10.671873l-2.265625 0zm10.609528 3.1875q-1.1875 -1.34375 -1.859375 -3.25q-0.671875 -1.9062481 -0.671875 -3.828123q0 -1.9375 0.671875 -3.828125q0.671875 -1.890625 1.859375 -3.234375l1.28125 0.953125q-0.921875 1.6875 -1.28125 3.109375q-0.34375 1.421875 -0.34375 3.0q0 1.640625 0.359375 3.078123q0.375 1.4375 1.265625 3.0l-1.28125 1.0zm6.205139 -3.0q-1.828125 0 -2.984375 -1.125q-1.140625 -1.1249981 -1.140625 -2.937498q0 -1.71875 1.140625 -2.875q1.140625 -1.171875 2.859375 -1.171875q1.703125 0 2.78125 1.1875q1.09375 1.171875 1.09375 3.078125l0 0.4375l-5.75 0q0.09375 0.734375 0.65625 1.265625q0.578125 0.5312481 1.5625 0.5312481q0.484375 0 1.078125 -0.203125q0.59375 -0.2031231 0.984375 -0.5624981l0.90625 1.3124981q-0.578125 0.515625 -1.4375 0.796875q-0.84375 0.265625 -1.75 0.265625zm1.78125 -4.781248q-0.046875 -0.765625 -0.578125 -1.234375q-0.53125 -0.46875 -1.328125 -0.46875q-0.796875 0 -1.3125 0.484375q-0.515625 0.484375 -0.59375 1.21875l3.8125 0zm8.223022 4.593748l-1.765625 -2.609373l-1.78125 2.609373l-2.25 0l2.734375 -3.968748l-2.578125 -3.765625l2.28125 0l1.59375 2.390625l1.578125 -2.390625l2.28125 0l-2.59375 3.765625l2.765625 3.968748l-2.265625 0zm5.8608704 0.1875q-2.1875 0 -2.1875 -2.109373l0 -4.03125l-1.28125 0l0 -1.78125l1.28125 0l0 -2.109375l2.046875 0l0 2.109375l1.578125 0l0 1.78125l-1.578125 0l0 3.484375q0 0.375 0.1875 0.625q0.1875 0.2343731 0.515625 0.2343731q0.484375 0 0.703125 -0.2343731l0.4375 1.5468731q-0.53125 0.484375 -1.703125 0.484375zm2.829895 -0.1875l0 -7.734373l2.03125 0l0 1.0625q0.40625 -0.515625 1.0625 -0.875q0.671875 -0.375 1.390625 -0.375l0 1.984375l-0.5625 -0.046875q-0.53125 0 -1.09375 0.265625q-0.546875 0.25 -0.796875 0.609375l0 5.109373l-2.03125 0zm10.38501 0l0 -0.796875q-0.84375 0.984375 -2.4375 0.984375q-1.125 0 -1.90625 -0.703125q-0.78125 -0.71875 -0.78125 -1.8593731q0 -1.125 0.734375 -1.796875q0.75 -0.6875 1.953125 -0.6875q1.65625 0 2.4375 0.9375l0 -1.03125q0 -0.59375 -0.46875 -0.9375q-0.453125 -0.359375 -1.21875 -0.359375q-1.28125 0 -2.25 0.90625l-0.78125 -1.359375q1.421875 -1.21875 3.375 -1.21875q1.640625 0 2.515625 0.765625q0.875 0.75 0.875 2.171875l0 4.984373l-2.046875 0zm-1.625 -1.1875q1.125 0 1.625 -0.6718731l0 -0.953125q-0.5 -0.671875 -1.625 -0.671875q-0.609375 0 -1.03125 0.3125q-0.421875 0.296875 -0.421875 0.859375q0 0.5312481 0.421875 0.8281231q0.421875 0.296875 1.03125 0.296875zm9.281769 1.375q-1.828125 0 -2.96875 -1.140625q-1.125 -1.1562481 -1.125 -2.921873q0 -1.734375 1.125 -2.890625q1.140625 -1.15625 2.96875 -1.15625q1.1875 0 1.921875 0.4375q0.75 0.421875 1.125 0.953125l-1.3125 1.25q-0.5625 -0.828125 -1.640625 -0.828125q-0.921875 0 -1.515625 0.625q-0.578125 0.609375 -0.578125 1.609375q0 1.015625 0.578125 1.640625q0.59375 0.6249981 1.515625 0.6249981q1.046875 0 1.640625 -0.8437481l1.3125 1.2343731q-0.375 0.546875 -1.125 0.984375q-0.734375 0.421875 -1.921875 0.421875zm6.968384 0q-2.1875 0 -2.1875 -2.109373l0 -4.03125l-1.28125 0l0 -1.78125l1.28125 0l0 -2.109375l2.046875 0l0 2.109375l1.578125 0l0 1.78125l-1.578125 0l0 3.484375q0 0.375 0.1875 0.625q0.1875 0.2343731 0.515625 0.2343731q0.484375 0 0.703125 -0.2343731l0.4375 1.5468731q-0.53125 0.484375 -1.703125 0.484375zm2.0798645 2.0q0.828125 -1.40625 1.234375 -2.8125q0.40625 -1.4218731 0.40625 -3.265623q0 -1.75 -0.390625 -3.15625q-0.375 -1.421875 -1.25 -2.953125l1.28125 -0.953125q1.15625 1.265625 1.859375 3.171875q0.703125 1.890625 0.703125 3.890625q0 1.984375 -0.703125 3.890623q-0.703125 1.90625 -1.859375 3.1875l-1.28125 -1.0z" fill-rule="nonzero"/><path fill="#cfe2f3" d="m231.38412 83.03163l0 0c-1.1761322 -9.051147 2.685318 -18.011238 9.945801 -23.078167c7.2604675 -5.0669327 16.646637 -5.3520813 24.175598 -0.73443985l0 0c2.6669617 -5.2627144 7.54834 -8.8962555 13.167572 -9.801548c5.6192017 -0.9052925 11.316315 1.0239944 15.367981 5.2042885l0 0c2.2719421 -4.771515 6.73291 -7.9773636 11.799957 -8.479942c5.0670166 -0.50258255 10.02301 1.7692337 13.109283 6.009285l0 0c4.1045837 -5.0577927 10.635071 -7.187332 16.765656 -5.4671593c6.130615 1.7201767 10.760254 6.9811096 11.88562 13.506363l0 0c5.0288086 1.4364357 9.217682 5.088047 11.4844055 10.011364c2.266693 4.9233246 2.3888245 10.635391 0.33486938 15.660393l0 0c4.9519043 6.7491226 6.1102905 15.742249 3.0428467 23.623306c-3.0674438 7.8810577 -9.899841 13.465996 -17.94748 14.670631c-0.056732178 7.396652 -3.93042 14.183731 -10.128021 17.745193c-6.1976013 3.5614624 -13.751312 3.3411865 -19.749603 -0.57592773l0 0c-2.5549622 8.85878 -9.746307 15.376968 -18.467133 16.738495c-8.720795 1.3615265 -17.407715 -2.6777039 -22.307617 -10.372589l0 0c-6.0062866 3.7928314 -13.213348 4.8854218 -19.995361 3.031311c-6.7820435 -1.8541107 -12.56778 -6.498749 -16.052078 -12.886169l0 0c-6.137665 0.75213623 -12.071945 -2.577896 -14.857666 -8.337418c-2.785736 -5.759529 -1.829895 -12.722481 2.3931427 -17.433167l0 0c-5.4749603 -3.374504 -8.268616 -10.070648 -6.924179 -16.596657c1.3444214 -6.5260086 6.522293 -11.403053 12.833527 -12.087959z" fill-rule="evenodd"/><path fill="#000000" fill-opacity="0.0" d="m225.35344 112.065094l0 0c2.5836487 1.5924377 5.5683746 2.3148117 8.553421 2.0701141m3.9097595 23.70105c1.2836761 -0.15731812 2.5419312 -0.49043274 3.7422943 -0.99076843m32.30333 10.8452c-0.90283203 -1.4178467 -1.6587524 -2.932953 -2.2548523 -4.5194855m43.03119 -1.8466797l0 0c0.4657898 -1.6150818 0.76760864 -3.277359 0.9003601 -4.959076m28.976135 -12.209572c0.060394287 -7.874878 -4.2107544 -15.085197 -10.978851 -18.533913m25.883362 -19.759193c-1.0960999 2.681549 -2.7693787 5.0603027 -4.8886414 6.9497757m-6.9296265 -32.62223l0 0c0.18676758 1.0828667 0.27319336 2.1820107 0.25811768 3.2821922m-28.908905 -11.321072l0 0c-1.0238953 1.2616692 -1.8674316 2.671566 -2.504364 4.185795m-22.40512 -1.7156906l0 0c-0.5456238 1.1459656 -0.9530945 2.3585892 -1.2129517 3.6099434m-27.323029 0.9874115l0 0c1.5931396 0.9770889 3.066986 2.153122 4.3891907 3.502262m-38.51013 20.310474l0 0c0.16209412 1.2474823 0.41822815 2.4795914 0.76597595 3.6847763" fill-rule="evenodd"/><path stroke="#000000" stroke-width="1.0" stroke-linejoin="round" stroke-linecap="butt" d="m231.38412 83.03163l0 0c-1.1761322 -9.051147 2.685318 -18.011238 9.945801 -23.078167c7.2604675 -5.0669327 16.646637 -5.3520813 24.175598 -0.73443985l0 0c2.6669617 -5.2627144 7.54834 -8.8962555 13.167572 -9.801548c5.6192017 -0.9052925 11.316315 1.0239944 15.367981 5.2042885l0 0c2.2719421 -4.771515 6.73291 -7.9773636 11.799957 -8.479942c5.0670166 -0.50258255 10.02301 1.7692337 13.109283 6.009285l0 0c4.1045837 -5.0577927 10.635071 -7.187332 16.765656 -5.4671593c6.130615 1.7201767 10.760254 6.9811096 11.88562 13.506363l0 0c5.0288086 1.4364357 9.217682 5.088047 11.4844055 10.011364c2.266693 4.9233246 2.3888245 10.635391 0.33486938 15.660393l0 0c4.9519043 6.7491226 6.1102905 15.742249 3.0428467 23.623306c-3.0674438 7.8810577 -9.899841 13.465996 -17.94748 14.670631c-0.056732178 7.396652 -3.93042 14.183731 -10.128021 17.745193c-6.1976013 3.5614624 -13.751312 3.3411865 -19.749603 -0.57592773l0 0c-2.5549622 8.85878 -9.746307 15.376968 -18.467133 16.738495c-8.720795 1.3615265 -17.407715 -2.6777039 -22.307617 -10.372589l0 0c-6.0062866 3.7928314 -13.213348 4.8854218 -19.995361 3.031311c-6.7820435 -1.8541107 -12.56778 -6.498749 -16.052078 -12.886169l0 0c-6.137665 0.75213623 -12.071945 -2.577896 -14.857666 -8.337418c-2.785736 -5.759529 -1.829895 -12.722481 2.3931427 -17.433167l0 0c-5.4749603 -3.374504 -8.268616 -10.070648 -6.924179 -16.596657c1.3444214 -6.5260086 6.522293 -11.403053 12.833527 -12.087959z" fill-rule="evenodd"/><path stroke="#000000" stroke-width="1.0" stroke-linejoin="round" stroke-linecap="butt" d="m225.35344 112.065094l0 0c2.5836487 1.5924377 5.5683746 2.3148117 8.553421 2.0701141m3.9097595 23.70105c1.2836761 -0.15731812 2.5419312 -0.49043274 3.7422943 -0.99076843m32.30333 10.8452c-0.90283203 -1.4178467 -1.6587524 -2.932953 -2.2548523 -4.5194855m43.03119 -1.8466797l0 0c0.4657898 -1.6150818 0.76760864 -3.277359 0.9003601 -4.959076m28.976135 -12.209572c0.060394287 -7.874878 -4.2107544 -15.085197 -10.978851 -18.533913m25.883362 -19.759193c-1.0960999 2.681549 -2.7693787 5.0603027 -4.8886414 6.9497757m-6.9296265 -32.62223l0 0c0.18676758 1.0828667 0.27319336 2.1820107 0.25811768 3.2821922m-28.908905 -11.321072l0 0c-1.0238953 1.2616692 -1.8674316 2.671566 -2.504364 4.185795m-22.40512 -1.7156906l0 0c-0.5456238 1.1459656 -0.9530945 2.3585892 -1.2129517 3.6099434m-27.323029 0.9874115l0 0c1.5931396 0.9770889 3.066986 2.153122 4.3891907 3.502262m-38.51013 20.310474l0 0c0.16209412 1.2474823 0.41822815 2.4795914 0.76597595 3.6847763" fill-rule="evenodd"/><path fill="#000000" d="m270.8301 95.57068l0 -10.671875l3.640625 0q2.4375 0 3.953125 1.515625q1.53125 1.515625 1.53125 3.828125q0 2.34375 -1.53125 3.84375q-1.53125 1.484375 -3.953125 1.484375l-3.640625 0zm3.640625 -1.1875q1.828125 0 2.953125 -1.140625q1.140625 -1.140625 1.140625 -3.0q0 -1.859375 -1.125 -3.0q-1.109375 -1.15625 -2.96875 -1.15625l-2.3125 0l0 8.296875l2.3125 0zm12.340637 1.1875l0 -0.875q-0.96875 1.0625 -2.5625 1.0625q-1.171875 0 -1.9375 -0.734375q-0.765625 -0.734375 -0.765625 -1.828125q0 -1.109375 0.75 -1.8125q0.765625 -0.71875 1.953125 -0.71875q1.671875 0 2.5625 1.046875l0 -1.390625q0 -0.78125 -0.5625 -1.203125q-0.546875 -0.421875 -1.390625 -0.421875q-1.359375 0 -2.359375 1.0625l-0.5625 -0.828125q1.234375 -1.28125 3.078125 -1.28125q1.421875 0 2.203125 0.6875q0.796875 0.6875 0.796875 1.921875l0 5.3125l-1.203125 0zm-2.125 -0.671875q1.421875 0 2.125 -0.953125l0 -1.46875q-0.703125 -0.953125 -2.125 -0.953125q-0.84375 0 -1.375 0.46875q-0.53125 0.46875 -0.53125 1.21875q0 0.75 0.53125 1.21875q0.53125 0.46875 1.375 0.46875zm7.6820374 0.859375q-1.71875 0 -1.71875 -1.796875l0 -5.0625l-1.28125 0l0 -1.0625l1.28125 0l0 -2.109375l1.203125 0l0 2.109375l1.5625 0l0 1.0625l-1.5625 0l0 4.796875q0 0.4375 0.1875 0.71875q0.203125 0.28125 0.59375 0.28125q0.5 0 0.8125 -0.328125l0.359375 0.90625q-0.5 0.484375 -1.4375 0.484375zm7.57901 -0.1875l0 -0.875q-0.96875 1.0625 -2.5625 1.0625q-1.171875 0 -1.9375 -0.734375q-0.765625 -0.734375 -0.765625 -1.828125q0 -1.109375 0.75 -1.8125q0.765625 -0.71875 1.953125 -0.71875q1.671875 0 2.5625 1.046875l0 -1.390625q0 -0.78125 -0.5625 -1.203125q-0.546875 -0.421875 -1.390625 -0.421875q-1.359375 0 -2.359375 1.0625l-0.5625 -0.828125q1.234375 -1.28125 3.078125 -1.28125q1.421875 0 2.203125 0.6875q0.796875 0.6875 0.796875 1.921875l0 5.3125l-1.203125 0zm-2.125 -0.671875q1.421875 0 2.125 -0.953125l0 -1.46875q-0.703125 -0.953125 -2.125 -0.953125q-0.84375 0 -1.375 0.46875q-0.53125 0.46875 -0.53125 1.21875q0 0.75 0.53125 1.21875q0.53125 0.46875 1.375 0.46875z" fill-rule="nonzero"/><path fill="#000000" d="m265.8912 114.75818q-2.578125 0 -4.09375 -1.6875l0.78125 -1.015625q0.65625 0.734375 1.53125 1.140625q0.890625 0.390625 1.828125 0.390625q1.15625 0 1.828125 -0.515625q0.6875 -0.515625 0.6875 -1.328125q0 -1.265625 -1.984375 -1.8125q-2.359375 -0.625 -3.015625 -0.984375q-0.640625 -0.375 -0.984375 -0.921875q-0.34375 -0.5625 -0.34375 -1.328125q0 -1.28125 1.03125 -2.109375q1.046875 -0.84375 2.640625 -0.84375q2.40625 0 3.796875 1.484375l-0.8125 0.96875q-1.140625 -1.265625 -3.078125 -1.265625q-0.96875 0 -1.59375 0.46875q-0.609375 0.453125 -0.609375 1.21875q0 0.5625 0.515625 0.953125q0.515625 0.390625 1.484375 0.625q2.28125 0.625 2.9375 1.03125q0.671875 0.40625 1.03125 0.984375q0.359375 0.578125 0.359375 1.421875q0 1.46875 -1.078125 2.296875q-1.0625 0.828125 -2.859375 0.828125zm9.251038 0q-1.6875 0 -2.765625 -1.140625q-1.0625 -1.140625 -1.0625 -2.921875q0 -1.78125 1.0625 -2.90625q1.078125 -1.140625 2.765625 -1.140625q1.671875 0 2.75 1.140625q1.078125 1.125 1.078125 2.90625q0 1.78125 -1.078125 2.921875q-1.078125 1.140625 -2.75 1.140625zm0 -1.0625q1.125 0 1.84375 -0.84375q0.71875 -0.84375 0.71875 -2.15625q0 -1.296875 -0.71875 -2.125q-0.71875 -0.84375 -1.84375 -0.84375q-1.125 0 -1.859375 0.828125q-0.71875 0.828125 -0.71875 2.140625q0 1.328125 0.71875 2.171875q0.71875 0.828125 1.859375 0.828125zm10.995758 0.875l0 -1.09375q-0.453125 0.515625 -1.171875 0.90625q-0.71875 0.375 -1.59375 0.375q-2.453125 0 -2.453125 -2.453125l0 -5.46875l1.203125 0l0 5.09375q0 0.90625 0.40625 1.34375q0.421875 0.421875 1.3125 0.421875q0.703125 0 1.328125 -0.34375q0.625 -0.359375 0.96875 -0.828125l0 -5.6875l1.1875 0l0 7.734375l-1.1875 0zm3.59729 0l0 -7.734375l1.203125 0l0 1.25q1.0625 -1.40625 2.5625 -1.40625l0 1.234375l-0.46875 -0.046875q-0.546875 0 -1.203125 0.390625q-0.65625 0.390625 -0.890625 0.84375l0 5.46875l-1.203125 0zm8.686249 0.1875q-1.703125 0 -2.78125 -1.140625q-1.078125 -1.15625 -1.078125 -2.921875q0 -1.734375 1.078125 -2.890625q1.078125 -1.15625 2.78125 -1.15625q1.796875 0 2.828125 1.34375l-0.796875 0.734375q-0.734375 -1.0 -1.96875 -1.0q-1.1875 0 -1.9375 0.828125q-0.734375 0.8125 -0.734375 2.140625q0 1.34375 0.734375 2.171875q0.734375 0.828125 1.9375 0.828125q1.21875 0 1.96875 -1.015625l0.796875 0.734375q-1.03125 1.34375 -2.828125 1.34375zm7.9981384 0q-1.75 0 -2.84375 -1.125q-1.09375 -1.140625 -1.09375 -2.9375q0 -1.703125 1.078125 -2.875q1.09375 -1.171875 2.734375 -1.171875q1.65625 0 2.671875 1.15625q1.03125 1.15625 1.03125 2.984375l0 0.3125l-6.25 0q0.0625 1.1875 0.84375 1.9375q0.796875 0.734375 1.9375 0.734375q1.40625 0 2.390625 -0.984375l0.578125 0.796875q-1.1875 1.171875 -3.078125 1.171875zm2.40625 -4.546875q0 -1.0625 -0.703125 -1.8125q-0.703125 -0.75 -1.84375 -0.75q-1.078125 0 -1.796875 0.75q-0.703125 0.75 -0.734375 1.8125l5.078125 0z" fill-rule="nonzero"/><path fill="#cfe2f3" d="m406.4029 76.09999l0 0c0 -7.100113 5.755768 -12.855896 12.855896 -12.855896l120.146484 0c3.409607 0 6.6795044 1.354454 9.090454 3.7654037c2.4109497 2.4109497 3.765442 5.6809006 3.765442 9.090492l0 51.42206c0 7.100128 -5.7557983 12.855911 -12.855896 12.855911l-120.146484 0c-7.100128 0 -12.855896 -5.755783 -12.855896 -12.855911z" fill-rule="evenodd"/><path stroke="#000000" stroke-width="2.0" stroke-linejoin="round" stroke-linecap="butt" d="m406.4029 76.09999l0 0c0 -7.100113 5.755768 -12.855896 12.855896 -12.855896l120.146484 0c3.409607 0 6.6795044 1.354454 9.090454 3.7654037c2.4109497 2.4109497 3.765442 5.6809006 3.765442 9.090492l0 51.42206c0 7.100128 -5.7557983 12.855911 -12.855896 12.855911l-120.146484 0c-7.100128 0 -12.855896 -5.755783 -12.855896 -12.855911z" fill-rule="evenodd"/><path fill="#000000" d="m420.23074 98.17102l0 -10.671875l4.203125 0q2.53125 0 4.09375 1.46875q1.5625 1.46875 1.5625 3.875q0 2.390625 -1.5625 3.859375q-1.5625 1.46875 -4.09375 1.46875l-4.203125 0zm4.203125 -2.0q1.484375 0 2.40625 -0.9375q0.9375 -0.9375 0.9375 -2.390625q0 -1.515625 -0.890625 -2.421875q-0.890625 -0.921875 -2.453125 -0.921875l-1.9375 0l0 6.671875l1.9375 0zm10.816162 2.1875q-1.796875 0 -2.9375 -1.140625q-1.140625 -1.15625 -1.140625 -2.921875q0 -1.75 1.140625 -2.890625q1.140625 -1.15625 2.9375 -1.15625q1.796875 0 2.9375 1.15625q1.15625 1.140625 1.15625 2.890625q0 1.78125 -1.15625 2.921875q-1.140625 1.140625 -2.9375 1.140625zm0 -1.796875q0.875 0 1.421875 -0.625q0.5625 -0.640625 0.5625 -1.640625q0 -0.953125 -0.5625 -1.59375q-0.546875 -0.640625 -1.421875 -0.640625q-0.84375 0 -1.40625 0.625q-0.5625 0.609375 -0.5625 1.609375q0 1.03125 0.5625 1.65625q0.5625 0.609375 1.40625 0.609375zm12.387146 1.609375l-1.640625 -5.265625l-1.625 5.265625l-2.171875 0l-2.359375 -7.734375l2.109375 0l1.4375 5.203125l1.703125 -5.203125l1.8125 0l1.6875 5.203125l1.4375 -5.203125l2.109375 0l-2.34375 7.734375l-2.15625 0zm10.725891 0l0 -4.671875q0 -1.4375 -1.421875 -1.4375q-1.09375 0 -1.75 0.90625l0 5.203125l-2.03125 0l0 -7.734375l2.03125 0l0 1.015625q0.359375 -0.453125 1.046875 -0.828125q0.6875 -0.375 1.65625 -0.375q1.28125 0 1.890625 0.671875q0.609375 0.65625 0.609375 1.796875l0 5.453125l-2.03125 0zm4.060913 0l0 -10.671875l2.03125 0l0 10.671875l-2.03125 0zm7.626129 0.1875q-1.796875 0 -2.9375 -1.140625q-1.140625 -1.15625 -1.140625 -2.921875q0 -1.75 1.140625 -2.890625q1.140625 -1.15625 2.9375 -1.15625q1.796875 0 2.9375 1.15625q1.15625 1.140625 1.15625 2.890625q0 1.78125 -1.15625 2.921875q-1.140625 1.140625 -2.9375 1.140625zm0 -1.796875q0.875 0 1.421875 -0.625q0.5625 -0.640625 0.5625 -1.640625q0 -0.953125 -0.5625 -1.59375q-0.546875 -0.640625 -1.421875 -0.640625q-0.84375 0 -1.40625 0.625q-0.5625 0.609375 -0.5625 1.609375q0 1.03125 0.5625 1.65625q0.5625 0.609375 1.40625 0.609375zm10.230896 1.609375l0 -0.796875q-0.84375 0.984375 -2.4375 0.984375q-1.125 0 -1.90625 -0.703125q-0.78125 -0.71875 -0.78125 -1.859375q0 -1.125 0.734375 -1.796875q0.75 -0.6875 1.953125 -0.6875q1.65625 0 2.4375 0.9375l0 -1.03125q0 -0.59375 -0.46875 -0.9375q-0.453125 -0.359375 -1.21875 -0.359375q-1.28125 0 -2.25 0.90625l-0.78125 -1.359375q1.421875 -1.21875 3.375 -1.21875q1.640625 0 2.515625 0.765625q0.875 0.75 0.875 2.171875l0 4.984375l-2.046875 0zm-1.625 -1.1875q1.125 0 1.625 -0.671875l0 -0.953125q-0.5 -0.671875 -1.625 -0.671875q-0.609375 0 -1.03125 0.3125q-0.421875 0.296875 -0.421875 0.859375q0 0.53125 0.421875 0.828125q0.421875 0.296875 1.03125 0.296875zm10.984894 1.1875l0 -0.984375q-0.953125 1.171875 -2.375 1.171875q-1.53125 0 -2.484375 -1.09375q-0.9375 -1.109375 -0.9375 -2.953125q0 -1.828125 0.9375 -2.9375q0.953125 -1.125 2.484375 -1.125q1.453125 0 2.375 1.1875l0 -3.9375l2.0625 0l0 10.671875l-2.0625 0zm-1.75 -1.609375q0.515625 0 1.0 -0.25q0.5 -0.25 0.75 -0.640625l0 -2.734375q-0.25 -0.375 -0.75 -0.625q-0.484375 -0.25 -1.0 -0.25q-0.859375 0 -1.40625 0.625q-0.546875 0.625 -0.546875 1.625q0 0.984375 0.515625 1.625q0.53125 0.625 1.4375 0.625zm9.92514 1.609375l0 -7.734375l2.03125 0l0 1.0625q0.40625 -0.515625 1.0625 -0.875q0.671875 -0.375 1.390625 -0.375l0 1.984375l-0.5625 -0.046875q-0.53125 0 -1.09375 0.265625q-0.546875 0.25 -0.796875 0.609375l0 5.109375l-2.03125 0zm10.38501 0l0 -0.796875q-0.84375 0.984375 -2.4375 0.984375q-1.125 0 -1.90625 -0.703125q-0.78125 -0.71875 -0.78125 -1.859375q0 -1.125 0.734375 -1.796875q0.75 -0.6875 1.953125 -0.6875q1.65625 0 2.4375 0.9375l0 -1.03125q0 -0.59375 -0.46875 -0.9375q-0.453125 -0.359375 -1.21875 -0.359375q-1.28125 0 -2.25 0.90625l-0.78125 -1.359375q1.421875 -1.21875 3.375 -1.21875q1.640625 0 2.515625 0.765625q0.875 0.75 0.875 2.171875l0 4.984375l-2.046875 0zm-1.625 -1.1875q1.125 0 1.625 -0.671875l0 -0.953125q-0.5 -0.671875 -1.625 -0.671875q-0.609375 0 -1.03125 0.3125q-0.421875 0.296875 -0.421875 0.859375q0 0.53125 0.421875 0.828125q0.421875 0.296875 1.03125 0.296875zm12.469299 1.1875l-1.640625 -5.265625l-1.625 5.265625l-2.171875 0l-2.3594055 -7.734375l2.1094055 0l1.4375 5.203125l1.703125 -5.203125l1.8125 0l1.6875 5.203125l1.4375 -5.203125l2.109375 0l-2.34375 7.734375l-2.15625 0z" fill-rule="nonzero"/><path fill="#000000" d="m425.48074 117.17102l0 -0.984375q-0.953125 1.171875 -2.375 1.171875q-1.53125 0 -2.484375 -1.09375q-0.9375 -1.109375 -0.9375 -2.953125q0 -1.828125 0.9375 -2.9375q0.953125 -1.125 2.484375 -1.125q1.453125 0 2.375 1.1875l0 -3.9375l2.0625 0l0 10.671875l-2.0625 0zm-1.75 -1.609375q0.515625 0 1.0 -0.25q0.5 -0.25 0.75 -0.640625l0 -2.734375q-0.25 -0.375 -0.75 -0.625q-0.484375 -0.25 -1.0 -0.25q-0.859375 0 -1.40625 0.625q-0.546875 0.625 -0.546875 1.625q0 0.984375 0.515625 1.625q0.53125 0.625 1.4375 0.625zm10.454163 1.609375l0 -0.796875q-0.84375 0.984375 -2.4375 0.984375q-1.125 0 -1.90625 -0.703125q-0.78125 -0.71875 -0.78125 -1.859375q0 -1.125 0.734375 -1.796875q0.75 -0.6875 1.953125 -0.6875q1.65625 0 2.4375 0.9375l0 -1.03125q0 -0.59375 -0.46875 -0.9375q-0.453125 -0.359375 -1.21875 -0.359375q-1.28125 0 -2.25 0.90625l-0.78125 -1.359375q1.421875 -1.21875 3.375 -1.21875q1.640625 0 2.515625 0.765625q0.875 0.75 0.875 2.171875l0 4.984375l-2.046875 0zm-1.625 -1.1875q1.125 0 1.625 -0.671875l0 -0.953125q-0.5 -0.671875 -1.625 -0.671875q-0.609375 0 -1.03125 0.3125q-0.421875 0.296875 -0.421875 0.859375q0 0.53125 0.421875 0.828125q0.421875 0.296875 1.03125 0.296875zm8.266144 1.375q-2.1875 0 -2.1875 -2.109375l0 -4.03125l-1.28125 0l0 -1.78125l1.28125 0l0 -2.109375l2.046875 0l0 2.109375l1.578125 0l0 1.78125l-1.578125 0l0 3.484375q0 0.375 0.1875 0.625q0.1875 0.234375 0.515625 0.234375q0.484375 0 0.703125 -0.234375l0.4375 1.546875q-0.53125 0.484375 -1.703125 0.484375zm7.4548645 -0.1875l0 -0.796875q-0.84375 0.984375 -2.4375 0.984375q-1.125 0 -1.90625 -0.703125q-0.78125 -0.71875 -0.78125 -1.859375q0 -1.125 0.734375 -1.796875q0.75 -0.6875 1.953125 -0.6875q1.65625 0 2.4375 0.9375l0 -1.03125q0 -0.59375 -0.46875 -0.9375q-0.453125 -0.359375 -1.21875 -0.359375q-1.28125 0 -2.25 0.90625l-0.78125 -1.359375q1.421875 -1.21875 3.375 -1.21875q1.640625 0 2.515625 0.765625q0.875 0.75 0.875 2.171875l0 4.984375l-2.046875 0zm-1.625 -1.1875q1.125 0 1.625 -0.671875l0 -0.953125q-0.5 -0.671875 -1.625 -0.671875q-0.609375 0 -1.03125 0.3125q-0.421875 0.296875 -0.421875 0.859375q0 0.53125 0.421875 0.828125q0.421875 0.296875 1.03125 0.296875z" fill-rule="nonzero"/><path fill="#cfe2f3" d="m406.4029 353.12756l0 0c0 -7.100128 5.755768 -12.855896 12.855896 -12.855896l120.146484 0c3.409607 0 6.6795044 1.3544312 9.090454 3.7653809c2.4109497 2.4109497 3.765442 5.680908 3.765442 9.090515l0 51.42206c0 7.1000977 -5.7557983 12.855896 -12.855896 12.855896l-120.146484 0c-7.100128 0 -12.855896 -5.7557983 -12.855896 -12.855896z" fill-rule="evenodd"/><path stroke="#000000" stroke-width="2.0" stroke-linejoin="round" stroke-linecap="butt" d="m406.4029 353.12756l0 0c0 -7.100128 5.755768 -12.855896 12.855896 -12.855896l120.146484 0c3.409607 0 6.6795044 1.3544312 9.090454 3.7653809c2.4109497 2.4109497 3.765442 5.680908 3.765442 9.090515l0 51.42206c0 7.1000977 -5.7557983 12.855896 -12.855896 12.855896l-120.146484 0c-7.100128 0 -12.855896 -5.7557983 -12.855896 -12.855896z" fill-rule="evenodd"/><path fill="#000000" d="m420.23074 375.19858l0 -10.671875l4.984375 0q1.640625 0 2.609375 0.953125q0.96875 0.953125 0.96875 2.484375q0 1.515625 -1.0 2.484375q-1.0 0.953125 -2.578125 0.953125l-2.71875 0l0 3.796875l-2.265625 0zm4.6875 -5.796875q0.671875 0 1.109375 -0.375q0.453125 -0.390625 0.453125 -1.0625q0 -0.671875 -0.453125 -1.046875q-0.4375 -0.390625 -1.109375 -0.390625l-2.421875 0l0 2.875l2.421875 0zm5.2496643 5.796875l0 -7.734375l2.03125 0l0 1.0625q0.40625 -0.515625 1.0625 -0.875q0.671875 -0.375 1.390625 -0.375l0 1.984375l-0.5625 -0.046875q-0.53125 0 -1.09375 0.265625q-0.546875 0.25 -0.796875 0.609375l0 5.109375l-2.03125 0zm9.38501 0.1875q-1.828125 0 -2.984375 -1.125q-1.140625 -1.125 -1.140625 -2.9375q0 -1.71875 1.140625 -2.875q1.140625 -1.171875 2.859375 -1.171875q1.703125 0 2.78125 1.1875q1.09375 1.171875 1.09375 3.078125l0 0.4375l-5.75 0q0.09375 0.734375 0.65625 1.265625q0.578125 0.53125 1.5625 0.53125q0.484375 0 1.078125 -0.203125q0.59375 -0.203125 0.984375 -0.5625l0.90625 1.3125q-0.578125 0.515625 -1.4375 0.796875q-0.84375 0.265625 -1.75 0.265625zm1.78125 -4.78125q-0.046875 -0.765625 -0.578125 -1.234375q-0.53125 -0.46875 -1.328125 -0.46875q-0.796875 0 -1.3125 0.484375q-0.515625 0.484375 -0.59375 1.21875l3.8125 0zm7.8480225 4.78125q-1.484375 0 -2.375 -1.171875l0 3.921875l-2.03125 0l0 -10.671875l2.03125 0l0 0.984375q0.921875 -1.171875 2.375 -1.171875q1.53125 0 2.46875 1.078125q0.953125 1.078125 0.953125 2.96875q0 1.859375 -0.9375 2.96875q-0.9375 1.09375 -2.484375 1.09375zm-0.640625 -1.796875q0.875 0 1.40625 -0.625q0.546875 -0.625 0.546875 -1.640625q0 -1.0 -0.546875 -1.609375q-0.53125 -0.625 -1.40625 -0.625q-0.5 0 -1.0 0.265625q-0.484375 0.25 -0.734375 0.609375l0 2.734375q0.25 0.375 0.734375 0.640625q0.5 0.25 1.0 0.25zm10.187378 1.609375l0 -0.796875q-0.84375 0.984375 -2.4375 0.984375q-1.125 0 -1.90625 -0.703125q-0.78125 -0.71875 -0.78125 -1.859375q0 -1.125 0.734375 -1.796875q0.75 -0.6875 1.953125 -0.6875q1.65625 0 2.4375 0.9375l0 -1.03125q0 -0.59375 -0.46875 -0.9375q-0.453125 -0.359375 -1.21875 -0.359375q-1.28125 0 -2.25 0.90625l-0.78125 -1.359375q1.421875 -1.21875 3.375 -1.21875q1.640625 0 2.515625 0.765625q0.875 0.75 0.875 2.171875l0 4.984375l-2.046875 0zm-1.625 -1.1875q1.125 0 1.625 -0.671875l0 -0.953125q-0.5 -0.671875 -1.625 -0.671875q-0.609375 0 -1.03125 0.3125q-0.421875 0.296875 -0.421875 0.859375q0 0.53125 0.421875 0.828125q0.421875 0.296875 1.03125 0.296875zm5.688019 1.1875l0 -7.734375l2.03125 0l0 1.0625q0.40625 -0.515625 1.0625 -0.875q0.671875 -0.375 1.390625 -0.375l0 1.984375l-0.5625 -0.046875q-0.53125 0 -1.09375 0.265625q-0.546875 0.25 -0.796875 0.609375l0 5.109375l-2.03125 0zm9.38501 0.1875q-1.828125 0 -2.984375 -1.125q-1.140625 -1.125 -1.140625 -2.9375q0 -1.71875 1.140625 -2.875q1.140625 -1.171875 2.859375 -1.171875q1.703125 0 2.78125 1.1875q1.09375 1.171875 1.09375 3.078125l0 0.4375l-5.75 0q0.09375 0.734375 0.65625 1.265625q0.578125 0.53125 1.5625 0.53125q0.484375 0 1.078125 -0.203125q0.59375 -0.203125 0.984375 -0.5625l0.90625 1.3125q-0.578125 0.515625 -1.4375 0.796875q-0.84375 0.265625 -1.75 0.265625zm1.78125 -4.78125q-0.046875 -0.765625 -0.578125 -1.234375q-0.53125 -0.46875 -1.328125 -0.46875q-0.796875 0 -1.3125 0.484375q-0.515625 0.484375 -0.59375 1.21875l3.8125 0zm12.834656 4.59375l0 -0.984375q-0.953125 1.171875 -2.375 1.171875q-1.53125 0 -2.484375 -1.09375q-0.9375 -1.109375 -0.9375 -2.953125q0 -1.828125 0.9375 -2.9375q0.953125 -1.125 2.484375 -1.125q1.453125 0 2.375 1.1875l0 -3.9375l2.0625 0l0 10.671875l-2.0625 0zm-1.75 -1.609375q0.515625 0 1.0 -0.25q0.5 -0.25 0.75 -0.640625l0 -2.734375q-0.25 -0.375 -0.75 -0.625q-0.484375 -0.25 -1.0 -0.25q-0.859375 0 -1.40625 0.625q-0.546875 0.625 -0.546875 1.625q0 0.984375 0.515625 1.625q0.53125 0.625 1.4375 0.625zm10.454163 1.609375l0 -0.796875q-0.84375 0.984375 -2.4375 0.984375q-1.125 0 -1.90625 -0.703125q-0.78125 -0.71875 -0.78125 -1.859375q0 -1.125 0.734375 -1.796875q0.75 -0.6875 1.953125 -0.6875q1.65625 0 2.4375 0.9375l0 -1.03125q0 -0.59375 -0.46875 -0.9375q-0.453125 -0.359375 -1.21875 -0.359375q-1.28125 0 -2.25 0.90625l-0.78125 -1.359375q1.421875 -1.21875 3.375 -1.21875q1.640625 0 2.515625 0.765625q0.875 0.75 0.875 2.171875l0 4.984375l-2.046875 0zm-1.625 -1.1875q1.125 0 1.625 -0.671875l0 -0.953125q-0.5 -0.671875 -1.625 -0.671875q-0.609375 0 -1.03125 0.3125q-0.421875 0.296875 -0.421875 0.859375q0 0.53125 0.421875 0.828125q0.421875 0.296875 1.03125 0.296875zm8.266144 1.375q-2.1875 0 -2.1875 -2.109375l0 -4.03125l-1.28125 0l0 -1.78125l1.28125 0l0 -2.109375l2.046875 0l0 2.109375l1.578125 0l0 1.78125l-1.578125 0l0 3.484375q0 0.375 0.1875 0.625q0.1875 0.234375 0.515625 0.234375q0.484375 0 0.703125 -0.234375l0.4375 1.546875q-0.53125 0.484375 -1.703125 0.484375zm7.4548645 -0.1875l0 -0.796875q-0.84375 0.984375 -2.4375 0.984375q-1.125 0 -1.90625 -0.703125q-0.78125 -0.71875 -0.78125 -1.859375q0 -1.125 0.734375 -1.796875q0.75 -0.6875 1.953125 -0.6875q1.65625 0 2.4375 0.9375l0 -1.03125q0 -0.59375 -0.46875 -0.9375q-0.453125 -0.359375 -1.21875 -0.359375q-1.28125 0 -2.25 0.90625l-0.78125 -1.359375q1.421875 -1.21875 3.375 -1.21875q1.640625 0 2.515625 0.765625q0.875 0.75 0.875 2.171875l0 4.984375l-2.046875 0zm-1.625 -1.1875q1.125 0 1.625 -0.671875l0 -0.953125q-0.5 -0.671875 -1.625 -0.671875q-0.609375 0 -1.03125 0.3125q-0.421875 0.296875 -0.421875 0.859375q0 0.53125 0.421875 0.828125q0.421875 0.296875 1.03125 0.296875zm10.221527 1.1875l0 -5.953125l-1.28125 0l0 -1.78125l1.28125 0l0 -0.40625q0 -1.25 0.71875 -1.96875q0.71875 -0.71875 1.890625 -0.71875q1.359375 0 2.015625 0.71875l-0.765625 1.203125q-0.328125 -0.328125 -0.84375 -0.328125q-0.421875 0 -0.703125 0.28125q-0.265625 0.265625 -0.265625 0.8125l0 0.40625l1.578125 0l0 1.78125l-1.578125 0l0 5.953125l-2.046875 0zm8.37262 0.1875q-1.796875 0 -2.9375 -1.140625q-1.140625 -1.15625 -1.140625 -2.921875q0 -1.75 1.140625 -2.890625q1.140625 -1.15625 2.9375 -1.15625q1.796875 0 2.9375 1.15625q1.15625 1.140625 1.15625 2.890625q0 1.78125 -1.15625 2.921875q-1.140625 1.140625 -2.9375 1.140625zm0 -1.796875q0.875 0 1.421875 -0.625q0.5625 -0.640625 0.5625 -1.640625q0 -0.953125 -0.5625 -1.59375q-0.546875 -0.640625 -1.421875 -0.640625q-0.84375 0 -1.40625 0.625q-0.5625 0.609375 -0.5625 1.609375q0 1.03125 0.5625 1.65625q0.5625 0.609375 1.40625 0.609375zm5.605896 1.609375l0 -7.734375l2.03125 0l0 1.0625q0.40625 -0.515625 1.0625 -0.875q0.671875 -0.375 1.390625 -0.375l0 1.984375l-0.5625 -0.046875q-0.53125 0 -1.09375 0.265625q-0.546875 0.25 -0.796875 0.609375l0 5.109375l-2.03125 0z" fill-rule="nonzero"/><path fill="#000000" d="m420.18387 394.19858l0 -10.671875l2.03125 0l0 10.671875l-2.03125 0zm7.626129 0.1875q-1.796875 0 -2.9375 -1.140625q-1.140625 -1.15625 -1.140625 -2.921875q0 -1.75 1.140625 -2.890625q1.140625 -1.15625 2.9375 -1.15625q1.796875 0 2.9375 1.15625q1.15625 1.140625 1.15625 2.890625q0 1.78125 -1.15625 2.921875q-1.140625 1.140625 -2.9375 1.140625zm0 -1.796875q0.875 0 1.421875 -0.625q0.5625 -0.640625 0.5625 -1.640625q0 -0.953125 -0.5625 -1.59375q-0.546875 -0.640625 -1.421875 -0.640625q-0.84375 0 -1.40625 0.625q-0.5625 0.609375 -0.5625 1.609375q0 1.03125 0.5625 1.65625q0.5625 0.609375 1.40625 0.609375zm10.230896 1.609375l0 -0.796875q-0.84375 0.984375 -2.4375 0.984375q-1.125 0 -1.90625 -0.703125q-0.78125 -0.71875 -0.78125 -1.859375q0 -1.125 0.734375 -1.796875q0.75 -0.6875 1.953125 -0.6875q1.65625 0 2.4375 0.9375l0 -1.03125q0 -0.59375 -0.46875 -0.9375q-0.453125 -0.359375 -1.21875 -0.359375q-1.28125 0 -2.25 0.90625l-0.78125 -1.359375q1.421875 -1.21875 3.375 -1.21875q1.640625 0 2.515625 0.765625q0.875 0.75 0.875 2.171875l0 4.984375l-2.046875 0zm-1.625 -1.1875q1.125 0 1.625 -0.671875l0 -0.953125q-0.5 -0.671875 -1.625 -0.671875q-0.609375 0 -1.03125 0.3125q-0.421875 0.296875 -0.421875 0.859375q0 0.53125 0.421875 0.828125q0.421875 0.296875 1.03125 0.296875zm10.984894 1.1875l0 -0.984375q-0.953125 1.171875 -2.375 1.171875q-1.53125 0 -2.484375 -1.09375q-0.9375 -1.109375 -0.9375 -2.953125q0 -1.828125 0.9375 -2.9375q0.953125 -1.125 2.484375 -1.125q1.453125 0 2.375 1.1875l0 -3.9375l2.0625 0l0 10.671875l-2.0625 0zm-1.75 -1.609375q0.515625 0 1.0 -0.25q0.5 -0.25 0.75 -0.640625l0 -2.734375q-0.25 -0.375 -0.75 -0.625q-0.484375 -0.25 -1.0 -0.25q-0.859375 0 -1.40625 0.625q-0.546875 0.625 -0.546875 1.625q0 0.984375 0.515625 1.625q0.53125 0.625 1.4375 0.625z" fill-rule="nonzero"/><path fill="#cfe2f3" d="m607.74896 360.05658l0 0c-1.1761475 -9.051147 2.6853027 -18.011261 9.945801 -23.078186c7.260437 -5.066925 16.646606 -5.3520813 24.175598 -0.73443604l0 0c2.6669922 -5.262726 7.54834 -8.89624 13.1675415 -9.801544c5.6192627 -0.90530396 11.316345 1.0239868 15.367981 5.2042847l0 0c2.2719727 -4.771515 6.73291 -7.977356 11.799988 -8.47995c5.0670166 -0.5025635 10.02301 1.7692566 13.109253 6.009308l0 0c4.1046143 -5.0578003 10.635071 -7.1873474 16.765686 -5.467163c6.130615 1.7201538 10.760254 6.9811096 11.88562 13.506348l0 0c5.0288086 1.4364319 9.217712 5.088043 11.484375 10.011383c2.2667236 4.9233093 2.388855 10.635376 0.3348999 15.66037l0 0c4.9519043 6.7491455 6.1102905 15.742249 3.0428467 23.623322c-3.0674438 7.8810425 -9.899841 13.466003 -17.94751 14.670624c-0.05670166 7.396637 -3.93042 14.183716 -10.127991 17.745209c-6.197632 3.5614624 -13.751343 3.3411865 -19.749634 -0.57592773l0 0c-2.5549316 8.858765 -9.746277 15.376953 -18.467102 16.738495c-8.720825 1.3615112 -17.407715 -2.6777039 -22.307617 -10.37262l0 0c-6.0062866 3.7928467 -13.213318 4.885437 -19.995361 3.0313416c-6.7820435 -1.854126 -12.56781 -6.498749 -16.052063 -12.886169l0 0c-6.1376953 0.75213623 -12.07196 -2.5779114 -14.857666 -8.337433c-2.7857666 -5.7595215 -1.829895 -12.722473 2.3931274 -17.433167l0 0c-5.4749756 -3.3745117 -8.268616 -10.070648 -6.9241943 -16.59665c1.3444214 -6.526001 6.522278 -11.403046 12.833557 -12.087952z" fill-rule="evenodd"/><path fill="#000000" fill-opacity="0.0" d="m601.71826 389.09003l0 0c2.5836792 1.5924377 5.5683594 2.3148193 8.553406 2.0701294m3.90979 23.70102c1.2836914 -0.1572876 2.5419312 -0.49041748 3.7423096 -0.9907532m32.303345 10.845215c-0.90289307 -1.4178772 -1.6588135 -2.932953 -2.2548828 -4.5195007m43.03119 -1.8466797l0 0c0.46575928 -1.6150818 0.7675781 -3.2773438 0.9003296 -4.959076m28.976135 -12.209564c0.060424805 -7.874878 -4.2107544 -15.085205 -10.978821 -18.533905m25.883362 -19.759216c-1.0960693 2.681549 -2.7693481 5.0603027 -4.888672 6.949768m-6.9295654 -32.622223l0 0c0.18670654 1.0828857 0.27313232 2.1820068 0.25805664 3.282196m-28.908875 -11.321075l0 0c-1.0238647 1.2616882 -1.8674316 2.6715698 -2.5043945 4.185791m-22.40509 -1.7156677l0 0c-0.5456543 1.1459656 -0.95306396 2.3585815 -1.2129517 3.6099243m-27.32306 0.98742676l0 0c1.5931396 0.9770813 3.0670166 2.1531067 4.389221 3.5022583m-38.51013 20.310486l0 0c0.16210938 1.247467 0.4182129 2.4795837 0.7659912 3.6847534" fill-rule="evenodd"/><path stroke="#000000" stroke-width="1.0" stroke-linejoin="round" stroke-linecap="butt" d="m607.74896 360.05658l0 0c-1.1761475 -9.051147 2.6853027 -18.011261 9.945801 -23.078186c7.260437 -5.066925 16.646606 -5.3520813 24.175598 -0.73443604l0 0c2.6669922 -5.262726 7.54834 -8.89624 13.1675415 -9.801544c5.6192627 -0.90530396 11.316345 1.0239868 15.367981 5.2042847l0 0c2.2719727 -4.771515 6.73291 -7.977356 11.799988 -8.47995c5.0670166 -0.5025635 10.02301 1.7692566 13.109253 6.009308l0 0c4.1046143 -5.0578003 10.635071 -7.1873474 16.765686 -5.467163c6.130615 1.7201538 10.760254 6.9811096 11.88562 13.506348l0 0c5.0288086 1.4364319 9.217712 5.088043 11.484375 10.011383c2.2667236 4.9233093 2.388855 10.635376 0.3348999 15.66037l0 0c4.9519043 6.7491455 6.1102905 15.742249 3.0428467 23.623322c-3.0674438 7.8810425 -9.899841 13.466003 -17.94751 14.670624c-0.05670166 7.396637 -3.93042 14.183716 -10.127991 17.745209c-6.197632 3.5614624 -13.751343 3.3411865 -19.749634 -0.57592773l0 0c-2.5549316 8.858765 -9.746277 15.376953 -18.467102 16.738495c-8.720825 1.3615112 -17.407715 -2.6777039 -22.307617 -10.37262l0 0c-6.0062866 3.7928467 -13.213318 4.885437 -19.995361 3.0313416c-6.7820435 -1.854126 -12.56781 -6.498749 -16.052063 -12.886169l0 0c-6.1376953 0.75213623 -12.07196 -2.5779114 -14.857666 -8.337433c-2.7857666 -5.7595215 -1.829895 -12.722473 2.3931274 -17.433167l0 0c-5.4749756 -3.3745117 -8.268616 -10.070648 -6.9241943 -16.59665c1.3444214 -6.526001 6.522278 -11.403046 12.833557 -12.087952z" fill-rule="evenodd"/><path stroke="#000000" stroke-width="1.0" stroke-linejoin="round" stroke-linecap="butt" d="m601.71826 389.09003l0 0c2.5836792 1.5924377 5.5683594 2.3148193 8.553406 2.0701294m3.90979 23.70102c1.2836914 -0.1572876 2.5419312 -0.49041748 3.7423096 -0.9907532m32.303345 10.845215c-0.90289307 -1.4178772 -1.6588135 -2.932953 -2.2548828 -4.5195007m43.03119 -1.8466797l0 0c0.46575928 -1.6150818 0.7675781 -3.2773438 0.9003296 -4.959076m28.976135 -12.209564c0.060424805 -7.874878 -4.2107544 -15.085205 -10.978821 -18.533905m25.883362 -19.759216c-1.0960693 2.681549 -2.7693481 5.0603027 -4.888672 6.949768m-6.9295654 -32.622223l0 0c0.18670654 1.0828857 0.27313232 2.1820068 0.25805664 3.282196m-28.908875 -11.321075l0 0c-1.0238647 1.2616882 -1.8674316 2.6715698 -2.5043945 4.185791m-22.40509 -1.7156677l0 0c-0.5456543 1.1459656 -0.95306396 2.3585815 -1.2129517 3.6099243m-27.32306 0.98742676l0 0c1.5931396 0.9770813 3.0670166 2.1531067 4.389221 3.5022583m-38.51013 20.310486l0 0c0.16210938 1.247467 0.4182129 2.4795837 0.7659912 3.6847534" fill-rule="evenodd"/><path fill="#000000" d="m652.42694 363.0956l0 -10.671875l4.75 0q1.359375 0 2.171875 0.75q0.8125 0.734375 0.8125 1.96875q0 0.9375 -0.515625 1.59375q-0.515625 0.65625 -1.34375 0.859375q0.84375 0.125 1.453125 0.890625q0.625 0.765625 0.625 1.734375q0 1.3125 -0.828125 2.09375q-0.828125 0.78125 -2.265625 0.78125l-4.859375 0zm4.53125 -6.046875q0.90625 0 1.359375 -0.484375q0.46875 -0.5 0.46875 -1.234375q0 -0.71875 -0.46875 -1.21875q-0.453125 -0.5 -1.359375 -0.5l-3.203125 0l0 3.4375l3.203125 0zm0.0625 4.859375q0.9375 0 1.453125 -0.484375q0.53125 -0.484375 0.53125 -1.359375q0 -0.8125 -0.546875 -1.3125q-0.546875 -0.515625 -1.4375 -0.515625l-3.265625 0l0 3.671875l3.265625 0zm10.329651 1.375q-2.34375 0 -3.828125 -1.5625q-1.46875 -1.5625 -1.46875 -3.953125q0 -2.40625 1.484375 -3.953125q1.484375 -1.5625 3.8125 -1.5625q2.359375 0 3.828125 1.5625q1.46875 1.5625 1.46875 3.953125q0 2.40625 -1.46875 3.9375l1.015625 1.09375l-0.921875 0.796875l-1.046875 -1.109375q-1.25 0.796875 -2.875 0.796875zm0 -1.171875q1.140625 0 2.03125 -0.546875l-1.515625 -1.65625l0.921875 -0.78125l1.515625 1.625q0.96875 -1.203125 0.96875 -2.984375q0 -1.921875 -1.09375 -3.125q-1.078125 -1.203125 -2.828125 -1.203125q-1.71875 0 -2.828125 1.1875q-1.09375 1.171875 -1.09375 3.140625q0 1.921875 1.078125 3.140625q1.09375 1.203125 2.84375 1.203125z" fill-rule="nonzero"/><path fill="#000000" d="m635.21893 382.0956l0 -10.671875l6.984375 0l0 1.1875l-5.65625 0l0 3.4375l5.546875 0l0 1.1875l-5.546875 0l0 3.671875l5.65625 0l0 1.1875l-6.984375 0zm14.057129 0l-2.3125 -3.171875l-2.328125 3.171875l-1.375 0l2.96875 -3.96875l-2.796875 -3.765625l1.390625 0l2.140625 2.953125l2.140625 -2.953125l1.390625 0l-2.796875 3.765625l2.96875 3.96875l-1.390625 0zm4.729126 0.1875q-1.71875 0 -1.71875 -1.796875l0 -5.0625l-1.28125 0l0 -1.0625l1.28125 0l0 -2.109375l1.203125 0l0 2.109375l1.5625 0l0 1.0625l-1.5625 0l0 4.796875q0 0.4375 0.1875 0.71875q0.203125 0.28125 0.59375 0.28125q0.5 0 0.8125 -0.328125l0.359375 0.90625q-0.5 0.484375 -1.4375 0.484375zm6.2352905 0q-1.75 0 -2.84375 -1.125q-1.09375 -1.140625 -1.09375 -2.9375q0 -1.703125 1.078125 -2.875q1.09375 -1.171875 2.734375 -1.171875q1.65625 0 2.671875 1.15625q1.03125 1.15625 1.03125 2.984375l0 0.3125l-6.25 0q0.0625 1.1875 0.84375 1.9375q0.796875 0.734375 1.9375 0.734375q1.40625 0 2.390625 -0.984375l0.578125 0.796875q-1.1875 1.171875 -3.078125 1.171875zm2.40625 -4.546875q0 -1.0625 -0.703125 -1.8125q-0.703125 -0.75 -1.84375 -0.75q-1.078125 0 -1.796875 0.75q-0.703125 0.75 -0.734375 1.8125l5.078125 0zm3.1173706 4.359375l0 -7.734375l1.203125 0l0 1.25q1.0625 -1.40625 2.5625 -1.40625l0 1.234375l-0.46875 -0.046875q-0.546875 0 -1.203125 0.390625q-0.65625 0.390625 -0.890625 0.84375l0 5.46875l-1.203125 0zm10.498779 0l0 -5.0625q0 -1.015625 -0.484375 -1.390625q-0.46875 -0.390625 -1.25 -0.390625q-0.671875 0 -1.328125 0.359375q-0.640625 0.359375 -0.953125 0.84375l0 5.640625l-1.203125 0l0 -7.734375l1.203125 0l0 1.125q0.484375 -0.578125 1.21875 -0.9375q0.734375 -0.375 1.53125 -0.375q2.453125 0 2.453125 2.5l0 5.421875l-1.1875 0zm8.425354 0l0 -0.875q-0.96875 1.0625 -2.5625 1.0625q-1.171875 0 -1.9375 -0.734375q-0.765625 -0.734375 -0.765625 -1.828125q0 -1.109375 0.75 -1.8125q0.765625 -0.71875 1.953125 -0.71875q1.671875 0 2.5625 1.046875l0 -1.390625q0 -0.78125 -0.5625 -1.203125q-0.546875 -0.421875 -1.390625 -0.421875q-1.359375 0 -2.359375 1.0625l-0.5625 -0.828125q1.234375 -1.28125 3.078125 -1.28125q1.421875 0 2.203125 0.6875q0.796875 0.6875 0.796875 1.921875l0 5.3125l-1.203125 0zm-2.125 -0.671875q1.421875 0 2.125 -0.953125l0 -1.46875q-0.703125 -0.953125 -2.125 -0.953125q-0.84375 0 -1.375 0.46875q-0.53125 0.46875 -0.53125 1.21875q0 0.75 0.53125 1.21875q0.53125 0.46875 1.375 0.46875zm5.728882 0.671875l0 -10.671875l1.203125 0l0 10.671875l-1.203125 0z" fill-rule="nonzero"/><path fill="#000000" d="m647.29956 401.0956l0 -9.484375l-3.375 0l0 -1.1875l8.09375 0l0 1.1875l-3.390625 0l0 9.484375l-1.328125 0zm9.740662 0l0 -0.875q-0.96875 1.0625 -2.5625 1.0625q-1.171875 0 -1.9375 -0.734375q-0.765625 -0.734375 -0.765625 -1.828125q0 -1.109375 0.75 -1.8125q0.765625 -0.71875 1.953125 -0.71875q1.671875 0 2.5625 1.046875l0 -1.390625q0 -0.78125 -0.5625 -1.203125q-0.546875 -0.421875 -1.390625 -0.421875q-1.359375 0 -2.359375 1.0625l-0.5625 -0.828125q1.234375 -1.28125 3.078125 -1.28125q1.421875 0 2.203125 0.6875q0.796875 0.6875 0.796875 1.921875l0 5.3125l-1.203125 0zm-2.125 -0.671875q1.421875 0 2.125 -0.953125l0 -1.46875q-0.703125 -0.953125 -2.125 -0.953125q-0.84375 0 -1.375 0.46875q-0.53125 0.46875 -0.53125 1.21875q0 0.75 0.53125 1.21875q0.53125 0.46875 1.375 0.46875zm6.932007 -1.421875q0.3125 0.515625 0.9375 0.875q0.640625 0.34375 1.359375 0.34375q1.140625 0 1.8125 -0.828125q0.6875 -0.828125 0.6875 -2.15625q0 -1.34375 -0.671875 -2.15625q-0.671875 -0.828125 -1.828125 -0.828125q-0.71875 0 -1.359375 0.375q-0.625 0.359375 -0.9375 0.875l0 3.5zm-1.203125 2.09375l0 -10.671875l1.203125 0l0 4.109375q0.984375 -1.359375 2.609375 -1.359375q1.53125 0 2.484375 1.125q0.953125 1.109375 0.953125 2.9375q0 1.859375 -0.953125 2.953125q-0.953125 1.09375 -2.484375 1.09375q-0.828125 0 -1.515625 -0.375q-0.671875 -0.375 -1.09375 -0.96875l0 1.15625l-1.203125 0zm9.200012 0l0 -10.671875l1.203125 0l0 10.671875l-1.203125 0zm7.0843506 0.1875q-1.75 0 -2.84375 -1.125q-1.09375 -1.140625 -1.09375 -2.9375q0 -1.703125 1.078125 -2.875q1.09375 -1.171875 2.734375 -1.171875q1.65625 0 2.671875 1.15625q1.03125 1.15625 1.03125 2.984375l0 0.3125l-6.25 0q0.0625 1.1875 0.84375 1.9375q0.796875 0.734375 1.9375 0.734375q1.40625 0 2.390625 -0.984375l0.578125 0.796875q-1.1875 1.171875 -3.078125 1.171875zm2.40625 -4.546875q0 -1.0625 -0.703125 -1.8125q-0.703125 -0.75 -1.84375 -0.75q-1.078125 0 -1.796875 0.75q-0.703125 0.75 -0.734375 1.8125l5.078125 0z" fill-rule="nonzero"/><path fill="#000000" fill-opacity="0.0" d="m363.96454 101.81065l42.4252 0" fill-rule="evenodd"/><path stroke="#000000" stroke-width="1.0" stroke-linejoin="round" stroke-linecap="butt" d="m363.96454 101.81065l38.998108 0" fill-rule="evenodd"/><path fill="#000000" stroke="#000000" stroke-width="1.0" stroke-linecap="butt" d="m402.96265 101.81065l-1.1246033 1.124588l3.0897827 -1.124588l-3.0897827 -1.1245804z" fill-rule="evenodd"/><path fill="#000000" fill-opacity="0.0" d="m552.26117 101.81102l42.771667 0" fill-rule="evenodd"/><path stroke="#000000" stroke-width="1.0" stroke-linejoin="round" stroke-linecap="butt" d="m552.26117 101.81102l39.344543 0" fill-rule="evenodd"/><path fill="#000000" stroke="#000000" stroke-width="1.0" stroke-linecap="butt" d="m591.6057 101.81102l-1.1245728 1.124588l3.0897827 -1.124588l-3.0897827 -1.1245804z" fill-rule="evenodd"/><path fill="#000000" fill-opacity="0.0" d="m552.26117 378.8386l42.771667 0" fill-rule="evenodd"/><path stroke="#000000" stroke-width="1.0" stroke-linejoin="round" stroke-linecap="butt" d="m552.26117 378.8386l39.344543 0" fill-rule="evenodd"/><path fill="#000000" stroke="#000000" stroke-width="1.0" stroke-linecap="butt" d="m591.6057 378.8386l-1.1245728 1.1245728l3.0897827 -1.1245728l-3.0897827 -1.1246033z" fill-rule="evenodd"/><path fill="#cfe2f3" d="m607.74896 83.03294l0 0c-1.1761475 -9.051147 2.6853027 -18.011238 9.945801 -23.078167c7.260437 -5.0669327 16.646606 -5.3520813 24.175598 -0.73443985l0 0c2.6669922 -5.2627144 7.54834 -8.8962555 13.1675415 -9.801548c5.6192627 -0.9052925 11.316345 1.0239944 15.367981 5.2042885l0 0c2.2719727 -4.771515 6.73291 -7.9773636 11.799988 -8.479942c5.0670166 -0.50258255 10.02301 1.7692337 13.109253 6.009285l0 0c4.1046143 -5.0577927 10.635071 -7.187332 16.765686 -5.4671593c6.130615 1.7201767 10.760254 6.9811096 11.88562 13.506363l0 0c5.0288086 1.4364357 9.217712 5.088047 11.484375 10.011364c2.2667236 4.9233246 2.388855 10.635391 0.3348999 15.660393l0 0c4.9519043 6.7491226 6.1102905 15.742249 3.0428467 23.623306c-3.0674438 7.8810577 -9.899841 13.465996 -17.94751 14.670631c-0.05670166 7.396652 -3.93042 14.183731 -10.127991 17.745193c-6.197632 3.5614624 -13.751343 3.3411865 -19.749634 -0.57592773l0 0c-2.5549316 8.85878 -9.746277 15.376968 -18.467102 16.738495c-8.720825 1.3615265 -17.407715 -2.6777039 -22.307617 -10.372589l0 0c-6.0062866 3.7928314 -13.213318 4.8854218 -19.995361 3.031311c-6.7820435 -1.8541107 -12.56781 -6.498749 -16.052063 -12.886169l0 0c-6.1376953 0.75213623 -12.07196 -2.577896 -14.857666 -8.337418c-2.7857666 -5.759529 -1.829895 -12.722481 2.3931274 -17.433159l0 0c-5.4749756 -3.3745117 -8.268616 -10.070656 -6.9241943 -16.596664c1.3444214 -6.5260086 6.522278 -11.403053 12.833557 -12.087959z" fill-rule="evenodd"/><path fill="#000000" fill-opacity="0.0" d="m601.71826 112.06641l0 0c2.5836792 1.5924377 5.5683594 2.3148117 8.553406 2.0701141m3.90979 23.70105c1.2836914 -0.15731812 2.5419312 -0.49043274 3.7423096 -0.99076843m32.303345 10.8452c-0.90289307 -1.4178467 -1.6588135 -2.932953 -2.2548828 -4.5194855m43.03119 -1.8466797l0 0c0.46575928 -1.6150818 0.7675781 -3.277359 0.9003296 -4.959076m28.976135 -12.209572c0.060424805 -7.874878 -4.2107544 -15.085197 -10.978821 -18.533913m25.883362 -19.759193c-1.0960693 2.681549 -2.7693481 5.0603027 -4.888672 6.9497757m-6.9295654 -32.62223l0 0c0.18670654 1.0828667 0.27313232 2.1820107 0.25805664 3.2821922m-28.908875 -11.321072l0 0c-1.0238647 1.2616692 -1.8674316 2.671566 -2.5043945 4.185795m-22.40509 -1.7156906l0 0c-0.5456543 1.1459656 -0.95306396 2.3585892 -1.2129517 3.6099434m-27.32306 0.9874115l0 0c1.5931396 0.9770889 3.0670166 2.153122 4.389221 3.502262m-38.51013 20.310474l0 0c0.16210938 1.2474823 0.4182129 2.4795914 0.7659912 3.6847763" fill-rule="evenodd"/><path stroke="#000000" stroke-width="1.0" stroke-linejoin="round" stroke-linecap="butt" d="m607.74896 83.03294l0 0c-1.1761475 -9.051147 2.6853027 -18.011238 9.945801 -23.078167c7.260437 -5.0669327 16.646606 -5.3520813 24.175598 -0.73443985l0 0c2.6669922 -5.2627144 7.54834 -8.8962555 13.1675415 -9.801548c5.6192627 -0.9052925 11.316345 1.0239944 15.367981 5.2042885l0 0c2.2719727 -4.771515 6.73291 -7.9773636 11.799988 -8.479942c5.0670166 -0.50258255 10.02301 1.7692337 13.109253 6.009285l0 0c4.1046143 -5.0577927 10.635071 -7.187332 16.765686 -5.4671593c6.130615 1.7201767 10.760254 6.9811096 11.88562 13.506363l0 0c5.0288086 1.4364357 9.217712 5.088047 11.484375 10.011364c2.2667236 4.9233246 2.388855 10.635391 0.3348999 15.660393l0 0c4.9519043 6.7491226 6.1102905 15.742249 3.0428467 23.623306c-3.0674438 7.8810577 -9.899841 13.465996 -17.94751 14.670631c-0.05670166 7.396652 -3.93042 14.183731 -10.127991 17.745193c-6.197632 3.5614624 -13.751343 3.3411865 -19.749634 -0.57592773l0 0c-2.5549316 8.85878 -9.746277 15.376968 -18.467102 16.738495c-8.720825 1.3615265 -17.407715 -2.6777039 -22.307617 -10.372589l0 0c-6.0062866 3.7928314 -13.213318 4.8854218 -19.995361 3.031311c-6.7820435 -1.8541107 -12.56781 -6.498749 -16.052063 -12.886169l0 0c-6.1376953 0.75213623 -12.07196 -2.577896 -14.857666 -8.337418c-2.7857666 -5.759529 -1.829895 -12.722481 2.3931274 -17.433159l0 0c-5.4749756 -3.3745117 -8.268616 -10.070656 -6.9241943 -16.596664c1.3444214 -6.5260086 6.522278 -11.403053 12.833557 -12.087959z" fill-rule="evenodd"/><path stroke="#000000" stroke-width="1.0" stroke-linejoin="round" stroke-linecap="butt" d="m601.71826 112.06641l0 0c2.5836792 1.5924377 5.5683594 2.3148117 8.553406 2.0701141m3.90979 23.70105c1.2836914 -0.15731812 2.5419312 -0.49043274 3.7423096 -0.99076843m32.303345 10.8452c-0.90289307 -1.4178467 -1.6588135 -2.932953 -2.2548828 -4.5194855m43.03119 -1.8466797l0 0c0.46575928 -1.6150818 0.7675781 -3.277359 0.9003296 -4.959076m28.976135 -12.209572c0.060424805 -7.874878 -4.2107544 -15.085197 -10.978821 -18.533913m25.883362 -19.759193c-1.0960693 2.681549 -2.7693481 5.0603027 -4.888672 6.9497757m-6.9295654 -32.62223l0 0c0.18670654 1.0828667 0.27313232 2.1820107 0.25805664 3.2821922m-28.908875 -11.321072l0 0c-1.0238647 1.2616692 -1.8674316 2.671566 -2.5043945 4.185795m-22.40509 -1.7156906l0 0c-0.5456543 1.1459656 -0.95306396 2.3585892 -1.2129517 3.6099434m-27.32306 0.9874115l0 0c1.5931396 0.9770889 3.0670166 2.153122 4.389221 3.502262m-38.51013 20.310474l0 0c0.16210938 1.2474823 0.4182129 2.4795914 0.7659912 3.6847763" fill-rule="evenodd"/><path fill="#000000" d="m652.8258 86.275116q-2.34375 0 -3.921875 -1.5625q-1.5625 -1.578125 -1.5625 -3.96875q0 -2.421875 1.578125 -3.96875q1.578125 -1.546875 3.90625 -1.546875q2.515625 0 4.15625 2.0l-1.0625 0.65625q-0.515625 -0.65625 -1.328125 -1.0625q-0.796875 -0.40625 -1.765625 -0.40625q-1.765625 0 -2.9375 1.234375q-1.171875 1.21875 -1.171875 3.09375q0 1.890625 1.171875 3.125q1.1875 1.234375 2.9375 1.234375q0.8125 0 1.578125 -0.3125q0.765625 -0.3125 1.296875 -0.84375l0 -2.171875l-3.671875 0l0 -1.1875l5.0 0l0 3.859375q-1.671875 1.828125 -4.203125 1.828125zm11.40802 -0.015625q-2.34375 0 -3.921875 -1.546875q-1.5625 -1.546875 -1.5625 -3.96875q0 -2.421875 1.5625 -3.96875q1.578125 -1.546875 3.921875 -1.546875q2.546875 0 4.0625 2.109375l-1.125 0.625q-0.46875 -0.671875 -1.25 -1.109375q-0.765625 -0.4375 -1.6875 -0.4375q-1.765625 0 -2.9375 1.234375q-1.171875 1.21875 -1.171875 3.09375q0 1.890625 1.15625 3.125q1.171875 1.21875 2.953125 1.21875q0.921875 0 1.6875 -0.4375q0.78125 -0.4375 1.25 -1.125l1.140625 0.625q-1.5625 2.109375 -4.078125 2.109375zm9.22229 0q-2.578125 0 -4.09375 -1.6875l0.78125 -1.015625q0.65625 0.734375 1.53125 1.140625q0.890625 0.390625 1.828125 0.390625q1.15625 0 1.828125 -0.515625q0.6875 -0.515625 0.6875 -1.328125q0 -1.265625 -1.984375 -1.8125q-2.359375 -0.625 -3.015625 -0.984375q-0.640625 -0.375 -0.984375 -0.921875q-0.34375 -0.5625 -0.34375 -1.328125q0 -1.28125 1.03125 -2.109375q1.046875 -0.84375 2.640625 -0.84375q2.40625 0 3.796875 1.484375l-0.8125 0.96875q-1.140625 -1.265625 -3.078125 -1.265625q-0.96875 0 -1.59375 0.46875q-0.609375 0.453125 -0.609375 1.21875q0 0.5625 0.515625 0.953125q0.515625 0.390625 1.484375 0.625q2.28125 0.625 2.9375 1.03125q0.671875 0.40625 1.03125 0.984375q0.359375 0.578125 0.359375 1.421875q0 1.46875 -1.078125 2.296875q-1.0625 0.828125 -2.859375 0.828125z" fill-rule="nonzero"/><path fill="#000000" d="m640.28955 105.25949q-1.953125 0 -3.109375 -1.21875l0.625 -0.859375q0.375 0.453125 1.046875 0.78125q0.6875 0.328125 1.5 0.328125q0.890625 0 1.34375 -0.375q0.46875 -0.375 0.46875 -0.953125q0 -0.515625 -0.5 -0.8125q-0.5 -0.296875 -1.875 -0.609375q-1.171875 -0.25 -1.796875 -0.765625q-0.609375 -0.515625 -0.609375 -1.40625q0 -0.96875 0.78125 -1.59375q0.78125 -0.625 2.09375 -0.625q1.75 0 2.875 1.125l-0.5625 0.828125q-0.359375 -0.421875 -0.953125 -0.6875q-0.59375 -0.28125 -1.359375 -0.28125q-0.796875 0 -1.25 0.359375q-0.453125 0.34375 -0.453125 0.84375q0 0.46875 0.5 0.75q0.515625 0.265625 1.890625 0.546875q1.171875 0.28125 1.78125 0.828125q0.609375 0.546875 0.609375 1.46875q0 1.0625 -0.828125 1.703125q-0.828125 0.625 -2.21875 0.625zm6.9556274 0q-1.71875 0 -1.71875 -1.796875l0 -5.0625l-1.28125 0l0 -1.0625l1.28125 0l0 -2.109375l1.203125 0l0 2.109375l1.5625 0l0 1.0625l-1.5625 0l0 4.796875q0 0.4375 0.1875 0.71875q0.203125 0.28125 0.59375 0.28125q0.5 0 0.8125 -0.328125l0.359375 0.90625q-0.5 0.484375 -1.4375 0.484375zm7.5789795 -0.1875l0 -0.875q-0.96875 1.0625 -2.5625 1.0625q-1.171875 0 -1.9375 -0.734375q-0.765625 -0.734375 -0.765625 -1.828125q0 -1.109375 0.75 -1.8125q0.765625 -0.71875 1.953125 -0.71875q1.671875 0 2.5625 1.046875l0 -1.390625q0 -0.78125 -0.5625 -1.203125q-0.546875 -0.421875 -1.390625 -0.421875q-1.359375 0 -2.359375 1.0625l-0.5625 -0.828125q1.234375 -1.28125 3.078125 -1.28125q1.421875 0 2.203125 0.6875q0.796875 0.6875 0.796875 1.921875l0 5.3125l-1.203125 0zm-2.125 -0.671875q1.421875 0 2.125 -0.953125l0 -1.46875q-0.703125 -0.953125 -2.125 -0.953125q-0.84375 0 -1.375 0.46875q-0.53125 0.46875 -0.53125 1.21875q0 0.75 0.53125 1.21875q0.53125 0.46875 1.375 0.46875zm8.822693 3.8125q-0.984375 0 -1.703125 -0.25q-0.71875 -0.234375 -1.40625 -0.90625l0.609375 -0.890625q0.46875 0.5625 1.0625 0.796875q0.609375 0.25 1.4375 0.25q1.1875 0 1.828125 -0.625q0.65625 -0.609375 0.65625 -1.6875l0 -1.109375q-0.40625 0.59375 -1.09375 0.984375q-0.671875 0.390625 -1.5 0.390625q-1.5625 0 -2.5 -1.09375q-0.9375 -1.109375 -0.9375 -2.90625q0 -1.859375 0.953125 -2.9375q0.953125 -1.078125 2.484375 -1.078125q1.609375 0 2.59375 1.359375l0 -1.171875l1.203125 0l0 7.515625q0 1.625 -0.96875 2.484375q-0.953125 0.875 -2.71875 0.875zm0.1875 -4.09375q0.65625 0 1.296875 -0.34375q0.65625 -0.359375 1.0 -0.921875l0 -3.375q-0.34375 -0.5625 -1.0 -0.90625q-0.65625 -0.34375 -1.296875 -0.34375q-1.140625 0 -1.8125 0.8125q-0.671875 0.8125 -0.671875 2.125q0 1.328125 0.6875 2.140625q0.6875 0.8125 1.796875 0.8125zm6.496521 -7.875q-0.328125 0 -0.578125 -0.234375q-0.234375 -0.234375 -0.234375 -0.5625q0 -0.34375 0.234375 -0.578125q0.25 -0.25 0.578125 -0.25q0.328125 0 0.5625 0.25q0.25 0.234375 0.25 0.578125q0 0.328125 -0.25 0.5625q-0.234375 0.234375 -0.5625 0.234375zm-0.59375 8.828125l0 -7.734375l1.203125 0l0 7.734375l-1.203125 0zm8.818726 0l0 -5.0625q0 -1.015625 -0.484375 -1.390625q-0.46875 -0.390625 -1.25 -0.390625q-0.671875 0 -1.328125 0.359375q-0.640625 0.359375 -0.953125 0.84375l0 5.640625l-1.203125 0l0 -7.734375l1.203125 0l0 1.125q0.484375 -0.578125 1.21875 -0.9375q0.734375 -0.375 1.53125 -0.375q2.453125 0 2.453125 2.5l0 5.421875l-1.1875 0zm6.69104 3.140625q-0.984375 0 -1.703125 -0.25q-0.71875 -0.234375 -1.40625 -0.90625l0.609375 -0.890625q0.46875 0.5625 1.0625 0.796875q0.609375 0.25 1.4375 0.25q1.1875 0 1.828125 -0.625q0.65625 -0.609375 0.65625 -1.6875l0 -1.109375q-0.40625 0.59375 -1.09375 0.984375q-0.671875 0.390625 -1.5 0.390625q-1.5625 0 -2.5 -1.09375q-0.9375 -1.109375 -0.9375 -2.90625q0 -1.859375 0.953125 -2.9375q0.953125 -1.078125 2.484375 -1.078125q1.609375 0 2.59375 1.359375l0 -1.171875l1.203125 0l0 7.515625q0 1.625 -0.96875 2.484375q-0.953125 0.875 -2.71875 0.875zm0.1875 -4.09375q0.65625 0 1.296875 -0.34375q0.65625 -0.359375 1.0 -0.921875l0 -3.375q-0.34375 -0.5625 -1.0 -0.90625q-0.65625 -0.34375 -1.296875 -0.34375q-1.140625 0 -1.8125 0.8125q-0.671875 0.8125 -0.671875 2.125q0 1.328125 0.6875 2.140625q0.6875 0.8125 1.796875 0.8125z" fill-rule="nonzero"/><path fill="#000000" d="m652.7842 124.07199l0 -0.875q-0.96875 1.0625 -2.5625 1.0625q-1.171875 0 -1.9375 -0.734375q-0.765625 -0.734375 -0.765625 -1.828125q0 -1.109375 0.75 -1.8125q0.765625 -0.71875 1.953125 -0.71875q1.671875 0 2.5625 1.046875l0 -1.390625q0 -0.78125 -0.5625 -1.203125q-0.546875 -0.421875 -1.390625 -0.421875q-1.359375 0 -2.359375 1.0625l-0.5625 -0.828125q1.234375 -1.28125 3.078125 -1.28125q1.421875 0 2.203125 0.6875q0.796875 0.6875 0.796875 1.921875l0 5.3125l-1.203125 0zm-2.125 -0.671875q1.421875 0 2.125 -0.953125l0 -1.46875q-0.703125 -0.953125 -2.125 -0.953125q-0.84375 0 -1.375 0.46875q-0.53125 0.46875 -0.53125 1.21875q0 0.75 0.53125 1.21875q0.53125 0.46875 1.375 0.46875zm5.728882 0.671875l0 -7.734375l1.203125 0l0 1.25q1.0625 -1.40625 2.5625 -1.40625l0 1.234375l-0.46875 -0.046875q-0.546875 0 -1.203125 0.390625q-0.65625 0.390625 -0.890625 0.84375l0 5.46875l-1.203125 0zm8.764404 0.1875q-1.75 0 -2.84375 -1.125q-1.09375 -1.140625 -1.09375 -2.9375q0 -1.703125 1.078125 -2.875q1.09375 -1.171875 2.734375 -1.171875q1.65625 0 2.671875 1.15625q1.03125 1.15625 1.03125 2.984375l0 0.3125l-6.25 0q0.0625 1.1875 0.84375 1.9375q0.796875 0.734375 1.9375 0.734375q1.40625 0 2.390625 -0.984375l0.578125 0.796875q-1.1875 1.171875 -3.078125 1.171875zm2.40625 -4.546875q0 -1.0625 -0.703125 -1.8125q-0.703125 -0.75 -1.84375 -0.75q-1.078125 0 -1.796875 0.75q-0.703125 0.75 -0.734375 1.8125l5.078125 0zm7.9454956 4.359375l0 -0.875q-0.96875 1.0625 -2.5625 1.0625q-1.171875 0 -1.9375 -0.734375q-0.765625 -0.734375 -0.765625 -1.828125q0 -1.109375 0.75 -1.8125q0.765625 -0.71875 1.953125 -0.71875q1.671875 0 2.5625 1.046875l0 -1.390625q0 -0.78125 -0.5625 -1.203125q-0.546875 -0.421875 -1.390625 -0.421875q-1.359375 0 -2.359375 1.0625l-0.5625 -0.828125q1.234375 -1.28125 3.078125 -1.28125q1.421875 0 2.203125 0.6875q0.796875 0.6875 0.796875 1.921875l0 5.3125l-1.203125 0zm-2.125 -0.671875q1.421875 0 2.125 -0.953125l0 -1.46875q-0.703125 -0.953125 -2.125 -0.953125q-0.84375 0 -1.375 0.46875q-0.53125 0.46875 -0.53125 1.21875q0 0.75 0.53125 1.21875q0.53125 0.46875 1.375 0.46875z" fill-rule="nonzero"/><path fill="#cfe2f3" d="m231.38412 360.0592l0 0c-1.1761322 -9.051147 2.685318 -18.011261 9.945801 -23.078186c7.2604675 -5.066925 16.646637 -5.3520813 24.175598 -0.73443604l0 0c2.6669617 -5.262726 7.54834 -8.89624 13.167572 -9.801544c5.6192017 -0.90530396 11.316315 1.0239868 15.367981 5.2042847l0 0c2.2719421 -4.771515 6.73291 -7.977356 11.799957 -8.47995c5.0670166 -0.5025635 10.02301 1.7692566 13.109283 6.009308l0 0c4.1045837 -5.0578003 10.635071 -7.1873474 16.765656 -5.467163c6.130615 1.7201538 10.760254 6.9811096 11.88562 13.506348l0 0c5.0288086 1.4364319 9.217682 5.088043 11.4844055 10.011383c2.266693 4.9233093 2.3888245 10.635376 0.33486938 15.66037l0 0c4.9519043 6.7491455 6.1102905 15.742249 3.0428467 23.623322c-3.0674438 7.8810425 -9.899841 13.466003 -17.94748 14.670624c-0.056732178 7.396637 -3.93042 14.183716 -10.128021 17.745209c-6.1976013 3.5614624 -13.751312 3.3411865 -19.749603 -0.57592773l0 0c-2.5549622 8.858765 -9.746307 15.376953 -18.467133 16.738495c-8.720795 1.3615112 -17.407715 -2.6777039 -22.307617 -10.37262l0 0c-6.0062866 3.7928467 -13.213348 4.885437 -19.995361 3.0313416c-6.7820435 -1.854126 -12.56778 -6.498749 -16.052078 -12.886169l0 0c-6.137665 0.75213623 -12.071945 -2.5779114 -14.857666 -8.337433c-2.785736 -5.7595215 -1.829895 -12.722473 2.3931427 -17.433167l0 0c-5.4749603 -3.3745117 -8.268616 -10.070648 -6.924179 -16.59665c1.3444214 -6.526001 6.522293 -11.403046 12.833527 -12.087952z" fill-rule="evenodd"/><path fill="#000000" fill-opacity="0.0" d="m225.35344 389.09265l0 0c2.5836487 1.5924377 5.5683746 2.3148193 8.553421 2.0701294m3.9097595 23.70102c1.2836761 -0.1572876 2.5419312 -0.49041748 3.7422943 -0.9907532m32.30333 10.845215c-0.90283203 -1.4178772 -1.6587524 -2.932953 -2.2548523 -4.5195007m43.03119 -1.8466797l0 0c0.4657898 -1.6150818 0.76760864 -3.2773438 0.9003601 -4.959076m28.976135 -12.209564c0.060394287 -7.874878 -4.2107544 -15.085205 -10.978851 -18.533905m25.883362 -19.759216c-1.0960999 2.681549 -2.7693787 5.0603027 -4.8886414 6.949768m-6.9296265 -32.622223l0 0c0.18676758 1.0828857 0.27319336 2.1820068 0.25811768 3.282196m-28.908905 -11.321075l0 0c-1.0238953 1.2616882 -1.8674316 2.6715698 -2.504364 4.185791m-22.40512 -1.7156677l0 0c-0.5456238 1.1459656 -0.9530945 2.3585815 -1.2129517 3.6099243m-27.323029 0.98742676l0 0c1.5931396 0.9770813 3.066986 2.1531067 4.3891907 3.5022583m-38.51013 20.310486l0 0c0.16209412 1.247467 0.41822815 2.4795837 0.76597595 3.6847534" fill-rule="evenodd"/><path stroke="#000000" stroke-width="1.0" stroke-linejoin="round" stroke-linecap="butt" d="m231.38412 360.0592l0 0c-1.1761322 -9.051147 2.685318 -18.011261 9.945801 -23.078186c7.2604675 -5.066925 16.646637 -5.3520813 24.175598 -0.73443604l0 0c2.6669617 -5.262726 7.54834 -8.89624 13.167572 -9.801544c5.6192017 -0.90530396 11.316315 1.0239868 15.367981 5.2042847l0 0c2.2719421 -4.771515 6.73291 -7.977356 11.799957 -8.47995c5.0670166 -0.5025635 10.02301 1.7692566 13.109283 6.009308l0 0c4.1045837 -5.0578003 10.635071 -7.1873474 16.765656 -5.467163c6.130615 1.7201538 10.760254 6.9811096 11.88562 13.506348l0 0c5.0288086 1.4364319 9.217682 5.088043 11.4844055 10.011383c2.266693 4.9233093 2.3888245 10.635376 0.33486938 15.66037l0 0c4.9519043 6.7491455 6.1102905 15.742249 3.0428467 23.623322c-3.0674438 7.8810425 -9.899841 13.466003 -17.94748 14.670624c-0.056732178 7.396637 -3.93042 14.183716 -10.128021 17.745209c-6.1976013 3.5614624 -13.751312 3.3411865 -19.749603 -0.57592773l0 0c-2.5549622 8.858765 -9.746307 15.376953 -18.467133 16.738495c-8.720795 1.3615112 -17.407715 -2.6777039 -22.307617 -10.37262l0 0c-6.0062866 3.7928467 -13.213348 4.885437 -19.995361 3.0313416c-6.7820435 -1.854126 -12.56778 -6.498749 -16.052078 -12.886169l0 0c-6.137665 0.75213623 -12.071945 -2.5779114 -14.857666 -8.337433c-2.785736 -5.7595215 -1.829895 -12.722473 2.3931427 -17.433167l0 0c-5.4749603 -3.3745117 -8.268616 -10.070648 -6.924179 -16.59665c1.3444214 -6.526001 6.522293 -11.403046 12.833527 -12.087952z" fill-rule="evenodd"/><path stroke="#000000" stroke-width="1.0" stroke-linejoin="round" stroke-linecap="butt" d="m225.35344 389.09265l0 0c2.5836487 1.5924377 5.5683746 2.3148193 8.553421 2.0701294m3.9097595 23.70102c1.2836761 -0.1572876 2.5419312 -0.49041748 3.7422943 -0.9907532m32.30333 10.845215c-0.90283203 -1.4178772 -1.6587524 -2.932953 -2.2548523 -4.5195007m43.03119 -1.8466797l0 0c0.4657898 -1.6150818 0.76760864 -3.2773438 0.9003601 -4.959076m28.976135 -12.209564c0.060394287 -7.874878 -4.2107544 -15.085205 -10.978851 -18.533905m25.883362 -19.759216c-1.0960999 2.681549 -2.7693787 5.0603027 -4.8886414 6.949768m-6.9296265 -32.622223l0 0c0.18676758 1.0828857 0.27319336 2.1820068 0.25811768 3.282196m-28.908905 -11.321075l0 0c-1.0238953 1.2616882 -1.8674316 2.6715698 -2.504364 4.185791m-22.40512 -1.7156677l0 0c-0.5456238 1.1459656 -0.9530945 2.3585815 -1.2129517 3.6099243m-27.323029 0.98742676l0 0c1.5931396 0.9770813 3.066986 2.1531067 4.3891907 3.5022583m-38.51013 20.310486l0 0c0.16209412 1.247467 0.41822815 2.4795837 0.76597595 3.6847534" fill-rule="evenodd"/><path fill="#000000" d="m276.46097 363.30136q-2.34375 0 -3.921875 -1.5625q-1.5625 -1.578125 -1.5625 -3.96875q0 -2.421875 1.578125 -3.96875q1.578125 -1.546875 3.90625 -1.546875q2.515625 0 4.15625 2.0l-1.0625 0.65625q-0.515625 -0.65625 -1.328125 -1.0625q-0.796875 -0.40625 -1.765625 -0.40625q-1.765625 0 -2.9375 1.234375q-1.171875 1.21875 -1.171875 3.09375q0 1.890625 1.171875 3.125q1.1875 1.234375 2.9375 1.234375q0.8125 0 1.578125 -0.3125q0.765625 -0.3125 1.296875 -0.84375l0 -2.171875l-3.671875 0l0 -1.1875l5.0 0l0 3.859375q-1.671875 1.828125 -4.203125 1.828125zm11.40802 -0.015625q-2.34375 0 -3.921875 -1.546875q-1.5625 -1.546875 -1.5625 -3.96875q0 -2.421875 1.5625 -3.96875q1.578125 -1.546875 3.921875 -1.546875q2.546875 0 4.0625 2.109375l-1.125 0.625q-0.46875 -0.671875 -1.25 -1.109375q-0.765625 -0.4375 -1.6875 -0.4375q-1.765625 0 -2.9375 1.234375q-1.171875 1.21875 -1.171875 3.09375q0 1.890625 1.15625 3.125q1.171875 1.21875 2.953125 1.21875q0.921875 0 1.6875 -0.4375q0.78125 -0.4375 1.25 -1.125l1.140625 0.625q-1.5625 2.109375 -4.078125 2.109375zm9.22229 0q-2.578125 0 -4.09375 -1.6875l0.78125 -1.015625q0.65625 0.734375 1.53125 1.140625q0.890625 0.390625 1.828125 0.390625q1.15625 0 1.828125 -0.515625q0.6875 -0.515625 0.6875 -1.328125q0 -1.265625 -1.984375 -1.8125q-2.359375 -0.625 -3.015625 -0.984375q-0.640625 -0.375 -0.984375 -0.921875q-0.34375 -0.5625 -0.34375 -1.328125q0 -1.28125 1.03125 -2.109375q1.046875 -0.84375 2.640625 -0.84375q2.40625 0 3.796875 1.484375l-0.8125 0.96875q-1.140625 -1.265625 -3.078125 -1.265625q-0.96875 0 -1.59375 0.46875q-0.609375 0.453125 -0.609375 1.21875q0 0.5625 0.515625 0.953125q0.515625 0.390625 1.484375 0.625q2.28125 0.625 2.9375 1.03125q0.671875 0.40625 1.03125 0.984375q0.359375 0.578125 0.359375 1.421875q0 1.46875 -1.078125 2.296875q-1.0625 0.828125 -2.859375 0.828125z" fill-rule="nonzero"/><path fill="#000000" d="m263.9247 382.28574q-1.953125 0 -3.109375 -1.21875l0.625 -0.859375q0.375 0.453125 1.046875 0.78125q0.6875 0.328125 1.5 0.328125q0.890625 0 1.34375 -0.375q0.46875 -0.375 0.46875 -0.953125q0 -0.515625 -0.5 -0.8125q-0.5 -0.296875 -1.875 -0.609375q-1.171875 -0.25 -1.796875 -0.765625q-0.609375 -0.515625 -0.609375 -1.40625q0 -0.96875 0.78125 -1.59375q0.78125 -0.625 2.09375 -0.625q1.75 0 2.875 1.125l-0.5625 0.828125q-0.359375 -0.421875 -0.953125 -0.6875q-0.59375 -0.28125 -1.359375 -0.28125q-0.796875 0 -1.25 0.359375q-0.453125 0.34375 -0.453125 0.84375q0 0.46875 0.5 0.75q0.515625 0.265625 1.890625 0.546875q1.171875 0.28125 1.78125 0.828125q0.609375 0.546875 0.609375 1.46875q0 1.0625 -0.828125 1.703125q-0.828125 0.625 -2.21875 0.625zm6.9556274 0q-1.71875 0 -1.71875 -1.796875l0 -5.0625l-1.28125 0l0 -1.0625l1.28125 0l0 -2.109375l1.203125 0l0 2.109375l1.5625 0l0 1.0625l-1.5625 0l0 4.796875q0 0.4375 0.1875 0.71875q0.203125 0.28125 0.59375 0.28125q0.5 0 0.8125 -0.328125l0.359375 0.90625q-0.5 0.484375 -1.4375 0.484375zm7.57901 -0.1875l0 -0.875q-0.96875 1.0625 -2.5625 1.0625q-1.171875 0 -1.9375 -0.734375q-0.765625 -0.734375 -0.765625 -1.828125q0 -1.109375 0.75 -1.8125q0.765625 -0.71875 1.953125 -0.71875q1.671875 0 2.5625 1.046875l0 -1.390625q0 -0.78125 -0.5625 -1.203125q-0.546875 -0.421875 -1.390625 -0.421875q-1.359375 0 -2.359375 1.0625l-0.5625 -0.828125q1.234375 -1.28125 3.078125 -1.28125q1.421875 0 2.203125 0.6875q0.796875 0.6875 0.796875 1.921875l0 5.3125l-1.203125 0zm-2.125 -0.671875q1.421875 0 2.125 -0.953125l0 -1.46875q-0.703125 -0.953125 -2.125 -0.953125q-0.84375 0 -1.375 0.46875q-0.53125 0.46875 -0.53125 1.21875q0 0.75 0.53125 1.21875q0.53125 0.46875 1.375 0.46875zm8.822662 3.8125q-0.984375 0 -1.703125 -0.25q-0.71875 -0.234375 -1.40625 -0.90625l0.609375 -0.890625q0.46875 0.5625 1.0625 0.796875q0.609375 0.25 1.4375 0.25q1.1875 0 1.828125 -0.625q0.65625 -0.609375 0.65625 -1.6875l0 -1.109375q-0.40625 0.59375 -1.09375 0.984375q-0.671875 0.390625 -1.5 0.390625q-1.5625 0 -2.5 -1.09375q-0.9375 -1.109375 -0.9375 -2.90625q0 -1.859375 0.953125 -2.9375q0.953125 -1.078125 2.484375 -1.078125q1.609375 0 2.59375 1.359375l0 -1.171875l1.203125 0l0 7.515625q0 1.625 -0.96875 2.484375q-0.953125 0.875 -2.71875 0.875zm0.1875 -4.09375q0.65625 0 1.296875 -0.34375q0.65625 -0.359375 1.0 -0.921875l0 -3.375q-0.34375 -0.5625 -1.0 -0.90625q-0.65625 -0.34375 -1.296875 -0.34375q-1.140625 0 -1.8125 0.8125q-0.671875 0.8125 -0.671875 2.125q0 1.328125 0.6875 2.140625q0.6875 0.8125 1.796875 0.8125zm6.496521 -7.875q-0.328125 0 -0.578125 -0.234375q-0.234375 -0.234375 -0.234375 -0.5625q0 -0.34375 0.234375 -0.578125q0.25 -0.25 0.578125 -0.25q0.328125 0 0.5625 0.25q0.25 0.234375 0.25 0.578125q0 0.328125 -0.25 0.5625q-0.234375 0.234375 -0.5625 0.234375zm-0.59375 8.828125l0 -7.734375l1.203125 0l0 7.734375l-1.203125 0zm8.818756 0l0 -5.0625q0 -1.015625 -0.484375 -1.390625q-0.46875 -0.390625 -1.25 -0.390625q-0.671875 0 -1.328125 0.359375q-0.640625 0.359375 -0.953125 0.84375l0 5.640625l-1.203125 0l0 -7.734375l1.203125 0l0 1.125q0.484375 -0.578125 1.21875 -0.9375q0.734375 -0.375 1.53125 -0.375q2.453125 0 2.453125 2.5l0 5.421875l-1.1875 0zm6.6910095 3.140625q-0.984375 0 -1.703125 -0.25q-0.71875 -0.234375 -1.40625 -0.90625l0.609375 -0.890625q0.46875 0.5625 1.0625 0.796875q0.609375 0.25 1.4375 0.25q1.1875 0 1.828125 -0.625q0.65625 -0.609375 0.65625 -1.6875l0 -1.109375q-0.40625 0.59375 -1.09375 0.984375q-0.671875 0.390625 -1.5 0.390625q-1.5625 0 -2.5 -1.09375q-0.9375 -1.109375 -0.9375 -2.90625q0 -1.859375 0.953125 -2.9375q0.953125 -1.078125 2.484375 -1.078125q1.609375 0 2.59375 1.359375l0 -1.171875l1.203125 0l0 7.515625q0 1.625 -0.96875 2.484375q-0.953125 0.875 -2.71875 0.875zm0.1875 -4.09375q0.65625 0 1.296875 -0.34375q0.65625 -0.359375 1.0 -0.921875l0 -3.375q-0.34375 -0.5625 -1.0 -0.90625q-0.65625 -0.34375 -1.296875 -0.34375q-1.140625 0 -1.8125 0.8125q-0.671875 0.8125 -0.671875 2.125q0 1.328125 0.6875 2.140625q0.6875 0.8125 1.796875 0.8125z" fill-rule="nonzero"/><path fill="#000000" d="m276.41934 401.09824l0 -0.875q-0.96875 1.0625 -2.5625 1.0625q-1.171875 0 -1.9375 -0.734375q-0.765625 -0.734375 -0.765625 -1.828125q0 -1.109375 0.75 -1.8125q0.765625 -0.71875 1.953125 -0.71875q1.671875 0 2.5625 1.046875l0 -1.390625q0 -0.78125 -0.5625 -1.203125q-0.546875 -0.421875 -1.390625 -0.421875q-1.359375 0 -2.359375 1.0625l-0.5625 -0.828125q1.234375 -1.28125 3.078125 -1.28125q1.421875 0 2.203125 0.6875q0.796875 0.6875 0.796875 1.921875l0 5.3125l-1.203125 0zm-2.125 -0.671875q1.421875 0 2.125 -0.953125l0 -1.46875q-0.703125 -0.953125 -2.125 -0.953125q-0.84375 0 -1.375 0.46875q-0.53125 0.46875 -0.53125 1.21875q0 0.75 0.53125 1.21875q0.53125 0.46875 1.375 0.46875zm5.7289124 0.671875l0 -7.734375l1.203125 0l0 1.25q1.0625 -1.40625 2.5625 -1.40625l0 1.234375l-0.46875 -0.046875q-0.546875 0 -1.203125 0.390625q-0.65625 0.390625 -0.890625 0.84375l0 5.46875l-1.203125 0zm8.764374 0.1875q-1.75 0 -2.84375 -1.125q-1.09375 -1.140625 -1.09375 -2.9375q0 -1.703125 1.078125 -2.875q1.09375 -1.171875 2.734375 -1.171875q1.65625 0 2.671875 1.15625q1.03125 1.15625 1.03125 2.984375l0 0.3125l-6.25 0q0.0625 1.1875 0.84375 1.9375q0.796875 0.734375 1.9375 0.734375q1.40625 0 2.390625 -0.984375l0.578125 0.796875q-1.1875 1.171875 -3.078125 1.171875zm2.40625 -4.546875q0 -1.0625 -0.703125 -1.8125q-0.703125 -0.75 -1.84375 -0.75q-1.078125 0 -1.796875 0.75q-0.703125 0.75 -0.734375 1.8125l5.078125 0zm7.945526 4.359375l0 -0.875q-0.96875 1.0625 -2.5625 1.0625q-1.171875 0 -1.9375 -0.734375q-0.765625 -0.734375 -0.765625 -1.828125q0 -1.109375 0.75 -1.8125q0.765625 -0.71875 1.953125 -0.71875q1.671875 0 2.5625 1.046875l0 -1.390625q0 -0.78125 -0.5625 -1.203125q-0.546875 -0.421875 -1.390625 -0.421875q-1.359375 0 -2.359375 1.0625l-0.5625 -0.828125q1.234375 -1.28125 3.078125 -1.28125q1.421875 0 2.203125 0.6875q0.796875 0.6875 0.796875 1.921875l0 5.3125l-1.203125 0zm-2.125 -0.671875q1.421875 0 2.125 -0.953125l0 -1.46875q-0.703125 -0.953125 -2.125 -0.953125q-0.84375 0 -1.375 0.46875q-0.53125 0.46875 -0.53125 1.21875q0 0.75 0.53125 1.21875q0.53125 0.46875 1.375 0.46875z" fill-rule="nonzero"/><path fill="#000000" fill-opacity="0.0" d="m363.96454 378.83823l42.4252 0" fill-rule="evenodd"/><path stroke="#000000" stroke-width="1.0" stroke-linejoin="round" stroke-linecap="butt" d="m363.96454 378.83823l38.998108 0" fill-rule="evenodd"/><path fill="#000000" stroke="#000000" stroke-width="1.0" stroke-linecap="butt" d="m402.96265 378.83823l-1.1246033 1.1245728l3.0897827 -1.1245728l-3.0897827 -1.1246033z" fill-rule="evenodd"/><path fill="#000000" fill-opacity="0.0" d="m188.87665 286.49213l580.9134 0l0 184.6929l-580.9134 0z" fill-rule="evenodd"/><path stroke="#000000" stroke-width="2.0" stroke-linejoin="round" stroke-linecap="butt" d="m188.87665 286.49213l580.9134 0l0 184.6929l-580.9134 0z" fill-rule="evenodd"/><path fill="#000000" d="m202.7204 311.0396q-2.84375 0 -4.5 -1.6875l1.21875 -1.734375q0.5625 0.59375 1.421875 1.015625q0.875 0.421875 1.96875 0.421875q0.953125 0 1.40625 -0.359375q0.453125 -0.359375 0.453125 -0.8125q0 -0.484375 -0.53125 -0.75q-0.515625 -0.28125 -2.53125 -0.765625q-3.078125 -0.734375 -3.078125 -3.09375q0 -1.375 1.109375 -2.3125q1.109375 -0.9375 2.9375 -0.9375q2.546875 0 4.15625 1.484375l-1.265625 1.65625q-1.25 -1.15625 -3.09375 -1.15625q-0.734375 0 -1.140625 0.296875q-0.390625 0.296875 -0.390625 0.765625q0 0.421875 0.453125 0.65625q0.46875 0.234375 1.15625 0.390625l1.46875 0.359375q3.0625 0.796875 3.0625 3.140625q0 1.59375 -1.140625 2.515625q-1.140625 0.90625 -3.140625 0.90625zm9.365646 0q-1.828125 0 -2.96875 -1.140625q-1.125 -1.15625 -1.125 -2.921875q0 -1.734375 1.125 -2.890625q1.140625 -1.15625 2.96875 -1.15625q1.1875 0 1.921875 0.4375q0.75 0.421875 1.125 0.953125l-1.3125 1.25q-0.5625 -0.828125 -1.640625 -0.828125q-0.921875 0 -1.515625 0.625q-0.578125 0.609375 -0.578125 1.609375q0 1.015625 0.578125 1.640625q0.59375 0.625 1.515625 0.625q1.046875 0 1.640625 -0.84375l1.3125 1.234375q-0.375 0.546875 -1.125 0.984375q-0.734375 0.421875 -1.921875 0.421875zm4.390259 -0.1875l0 -7.734375l2.03125 0l0 1.0625q0.40625 -0.515625 1.0625 -0.875q0.671875 -0.375 1.390625 -0.375l0 1.984375l-0.5625 -0.046875q-0.53125 0 -1.09375 0.265625q-0.546875 0.25 -0.796875 0.609375l0 5.109375l-2.03125 0zm6.76001 -8.5625q-0.5 0 -0.859375 -0.34375q-0.359375 -0.359375 -0.359375 -0.875q0 -0.5 0.359375 -0.84375q0.359375 -0.34375 0.859375 -0.34375q0.515625 0 0.859375 0.34375q0.359375 0.34375 0.359375 0.84375q0 0.515625 -0.359375 0.875q-0.34375 0.34375 -0.859375 0.34375zm-1.0 8.5625l0 -7.734375l2.03125 0l0 7.734375l-2.03125 0zm8.454254 0.1875q-1.484375 0 -2.375 -1.171875l0 3.921875l-2.03125 0l0 -10.671875l2.03125 0l0 0.984375q0.921875 -1.171875 2.375 -1.171875q1.53125 0 2.46875 1.078125q0.953125 1.078125 0.953125 2.96875q0 1.859375 -0.9375 2.96875q-0.9375 1.09375 -2.484375 1.09375zm-0.640625 -1.796875q0.875 0 1.40625 -0.625q0.546875 -0.625 0.546875 -1.640625q0 -1.0 -0.546875 -1.609375q-0.53125 -0.625 -1.40625 -0.625q-0.5 0 -1.0 0.265625q-0.484375 0.25 -0.734375 0.609375l0 2.734375q0.25 0.375 0.734375 0.640625q0.5 0.25 1.0 0.25zm8.140518 1.796875q-2.1875 0 -2.1875 -2.109375l0 -4.03125l-1.28125 0l0 -1.78125l1.28125 0l0 -2.109375l2.046875 0l0 2.109375l1.578125 0l0 1.78125l-1.578125 0l0 3.484375q0 0.375 0.1875 0.625q0.1875 0.234375 0.515625 0.234375q0.484375 0 0.703125 -0.234375l0.4375 1.546875q-0.53125 0.484375 -1.703125 0.484375zm9.816513 -0.1875l0.921875 -2.703125l-1.515625 0l-0.90625 2.703125l-1.515625 0l0.921875 -2.703125l-1.546875 0l0.421875 -1.296875l1.5625 0l0.875 -2.65625l-1.578125 0l0.40625 -1.28125l1.609375 0l0.90625 -2.734375l1.5 0l-0.890625 2.734375l1.5 0l0.890625 -2.734375l1.515625 0l-0.921875 2.734375l1.546875 0l-0.375 1.28125l-1.609375 0l-0.875 2.65625l1.625 0l-0.40625 1.296875l-1.65625 0l-0.890625 2.703125l-1.515625 0zm2.21875 -6.65625l-1.5 0l-0.859375 2.65625l1.484375 0l0.875 -2.65625zm4.5130157 6.65625l0 -1.78125q3.78125 -2.8125 4.71875 -3.796875q0.9375 -0.984375 0.9375 -1.84375q0 -0.625 -0.484375 -1.0q-0.484375 -0.390625 -1.25 -0.390625q-1.65625 0 -2.859375 1.234375l-1.296875 -1.515625q0.78125 -0.90625 1.875 -1.3125q1.109375 -0.421875 2.234375 -0.421875q1.8125 0 2.9375 0.953125q1.140625 0.9375 1.140625 2.453125q0 1.21875 -0.96875 2.484375q-0.96875 1.25 -3.296875 2.9375l4.34375 0l0 2.0l-8.03125 0zm16.133514 3.1875q-1.1875 -1.34375 -1.859375 -3.25q-0.671875 -1.90625 -0.671875 -3.828125q0 -1.9375 0.671875 -3.828125q0.671875 -1.890625 1.859375 -3.234375l1.28125 0.953125q-0.921875 1.6875 -1.28125 3.109375q-0.34375 1.421875 -0.34375 3.0q0 1.640625 0.359375 3.078125q0.375 1.4375 1.265625 3.0l-1.28125 1.0zm2.5801392 -3.1875l0 -10.671875l2.03125 0l0 10.671875l-2.03125 0zm7.626129 0.1875q-1.796875 0 -2.9375 -1.140625q-1.140625 -1.15625 -1.140625 -2.921875q0 -1.75 1.140625 -2.890625q1.140625 -1.15625 2.9375 -1.15625q1.796875 0 2.9375 1.15625q1.15625 1.140625 1.15625 2.890625q0 1.78125 -1.15625 2.921875q-1.140625 1.140625 -2.9375 1.140625zm0 -1.796875q0.875 0 1.421875 -0.625q0.5625 -0.640625 0.5625 -1.640625q0 -0.953125 -0.5625 -1.59375q-0.546875 -0.640625 -1.421875 -0.640625q-0.84375 0 -1.40625 0.625q-0.5625 0.609375 -0.5625 1.609375q0 1.03125 0.5625 1.65625q0.5625 0.609375 1.40625 0.609375zm10.230896 1.609375l0 -0.796875q-0.84375 0.984375 -2.4375 0.984375q-1.125 0 -1.90625 -0.703125q-0.78125 -0.71875 -0.78125 -1.859375q0 -1.125 0.734375 -1.796875q0.75 -0.6875 1.953125 -0.6875q1.65625 0 2.4375 0.9375l0 -1.03125q0 -0.59375 -0.46875 -0.9375q-0.453125 -0.359375 -1.21875 -0.359375q-1.28125 0 -2.25 0.90625l-0.78125 -1.359375q1.421875 -1.21875 3.375 -1.21875q1.640625 0 2.515625 0.765625q0.875 0.75 0.875 2.171875l0 4.984375l-2.046875 0zm-1.625 -1.1875q1.125 0 1.625 -0.671875l0 -0.953125q-0.5 -0.671875 -1.625 -0.671875q-0.609375 0 -1.03125 0.3125q-0.421875 0.296875 -0.421875 0.859375q0 0.53125 0.421875 0.828125q0.421875 0.296875 1.03125 0.296875zm10.984894 1.1875l0 -0.984375q-0.953125 1.171875 -2.375 1.171875q-1.53125 0 -2.484375 -1.09375q-0.9375 -1.109375 -0.9375 -2.953125q0 -1.828125 0.9375 -2.9375q0.953125 -1.125 2.484375 -1.125q1.453125 0 2.375 1.1875l0 -3.9375l2.0625 0l0 10.671875l-2.0625 0zm-1.75 -1.609375q0.515625 0 1.0 -0.25q0.5 -0.25 0.75 -0.640625l0 -2.734375q-0.25 -0.375 -0.75 -0.625q-0.484375 -0.25 -1.0 -0.25q-0.859375 0 -1.40625 0.625q-0.546875 0.625 -0.546875 1.625q0 0.984375 0.515625 1.625q0.53125 0.625 1.4375 0.625zm5.0791626 3.796875q0.828125 -1.40625 1.234375 -2.8125q0.40625 -1.421875 0.40625 -3.265625q0 -1.75 -0.390625 -3.15625q-0.375 -1.421875 -1.25 -2.953125l1.28125 -0.953125q1.15625 1.265625 1.859375 3.171875q0.703125 1.890625 0.703125 3.890625q0 1.984375 -0.703125 3.890625q-0.703125 1.90625 -1.859375 3.1875l-1.28125 -1.0z" fill-rule="nonzero"/><path fill="#000000" fill-opacity="0.0" d="m769.79004 101.80971l25.002502 0l0 138.51414l-630.9184 0l0 138.52524l25.002518 0" fill-rule="evenodd"/><path stroke="#000000" stroke-width="2.0" stroke-linejoin="round" stroke-linecap="butt" stroke-dasharray="8.0,6.0" d="m769.79004 101.80971l25.002502 0l0 138.51414l-630.9184 0l0 138.52524l18.148346 0" fill-rule="evenodd"/><path fill="#000000" stroke="#000000" stroke-width="2.0" stroke-linecap="butt" d="m182.02246 378.8491l-2.2491608 2.2491455l6.179535 -2.2491455l-6.179535 -2.249176z" fill-rule="evenodd"/></g></svg>