<svg version="1.1" viewBox="0.0 0.0 959.1391076115485 231.38320209973753" fill="none" stroke="none" stroke-linecap="square" stroke-miterlimit="10" xmlns:xlink="http://www.w3.org/1999/xlink" xmlns="http://www.w3.org/2000/svg"><clipPath id="p.0"><path d="m0 0l959.1391 0l0 231.38321l-959.1391 0l0 -231.38321z" clip-rule="nonzero"/></clipPath><g clip-path="url(#p.0)"><path fill="#000000" fill-opacity="0.0" d="m0 0l959.1391 0l0 231.38321l-959.1391 0z" fill-rule="evenodd"/><path fill="#cfe2f3" d="m60.263386 96.9109l0 0c-1.1761246 -9.051147 2.6853256 -18.011238 9.945797 -23.07817c7.260475 -5.0669327 16.646637 -5.3520737 24.175598 -0.73443604l0 0c2.6669846 -5.262718 7.5483475 -8.8962555 13.167572 -9.801548c5.6192245 -0.9052925 11.316307 1.0239906 15.367996 5.2042885l0 0c2.2719269 -4.771515 6.73291 -7.9773636 11.799942 -8.479942c5.067032 -0.50258255 10.02301 1.7692337 13.109299 6.009285l0 0c4.1045685 -5.0577927 10.635056 -7.187332 16.765656 -5.4671593c6.130615 1.7201767 10.760239 6.981106 11.88562 13.506367l0 0c5.0288086 1.4364319 9.217682 5.088043 11.48439 10.01136c2.266693 4.9233246 2.3888397 10.635391 0.33488464 15.660393l0 0c4.9519043 6.7491226 6.1102753 15.742249 3.0428314 23.623306c-3.0674286 7.8810577 -9.899826 13.466003 -17.947464 14.670624c-0.05671692 7.396652 -3.9304352 14.183731 -10.1280365 17.745209c-6.1976013 3.5614624 -13.751312 3.3411865 -19.749603 -0.57592773l0 0c-2.5549622 8.858765 -9.746307 15.376968 -18.467125 16.738495c-8.72081 1.3615112 -17.407707 -2.677719 -22.307632 -10.372604l0 0c-6.006279 3.7928467 -13.213318 4.885437 -19.995354 3.0313263c-6.782028 -1.8541107 -12.567772 -6.498749 -16.052078 -12.886169l0 0c-6.137665 0.75213623 -12.071938 -2.5779114 -14.857662 -8.337433c-2.7857246 -5.7595215 -1.8298836 -12.722473 2.393139 -17.433151l0 0c-5.4749565 -3.3745117 -8.268608 -10.070656 -6.924179 -16.596664c1.3444328 -6.5260086 6.522297 -11.403053 12.833538 -12.087959z" fill-rule="evenodd"/><path fill="#000000" fill-opacity="0.0" d="m54.232704 125.94436l0 0c2.5836525 1.5924377 5.568371 2.3148117 8.553413 2.0701218m3.9097672 23.701035c1.2836761 -0.15730286 2.5419312 -0.49041748 3.742302 -0.99076843m32.303337 10.845215c-0.9028549 -1.4178619 -1.6587753 -2.932953 -2.2548752 -4.5194855m43.03119 -1.8466797l0 0c0.46580505 -1.615097 0.76760864 -3.277359 0.9003601 -4.959091m28.97615 -12.209564c0.060394287 -7.874878 -4.2107697 -15.085197 -10.978867 -18.533913m25.883362 -19.759193c-1.0960846 2.681549 -2.7693634 5.0603027 -4.8886414 6.9497757m-6.929611 -32.62223l0 0c0.18676758 1.0828705 0.27319336 2.1820068 0.25810242 3.282196m-28.90889 -11.321075l0 0c-1.0238953 1.261673 -1.8674316 2.6715698 -2.5043793 4.185791m-22.405098 -1.715683l0 0c-0.54564667 1.145958 -0.9530945 2.3585892 -1.2129669 3.6099396m-27.32302 0.9874115l0 0c1.5931244 0.9770889 3.0669785 2.153122 4.389183 3.5022583m-38.510136 20.310478l0 0c0.16210175 1.2474823 0.41822815 2.4795914 0.7659836 3.6847763" fill-rule="evenodd"/><path stroke="#000000" stroke-width="1.0" stroke-linejoin="round" stroke-linecap="butt" d="m60.263386 96.9109l0 0c-1.1761246 -9.051147 2.6853256 -18.011238 9.945797 -23.07817c7.260475 -5.0669327 16.646637 -5.3520737 24.175598 -0.73443604l0 0c2.6669846 -5.262718 7.5483475 -8.8962555 13.167572 -9.801548c5.6192245 -0.9052925 11.316307 1.0239906 15.367996 5.2042885l0 0c2.2719269 -4.771515 6.73291 -7.9773636 11.799942 -8.479942c5.067032 -0.50258255 10.02301 1.7692337 13.109299 6.009285l0 0c4.1045685 -5.0577927 10.635056 -7.187332 16.765656 -5.4671593c6.130615 1.7201767 10.760239 6.981106 11.88562 13.506367l0 0c5.0288086 1.4364319 9.217682 5.088043 11.48439 10.01136c2.266693 4.9233246 2.3888397 10.635391 0.33488464 15.660393l0 0c4.9519043 6.7491226 6.1102753 15.742249 3.0428314 23.623306c-3.0674286 7.8810577 -9.899826 13.466003 -17.947464 14.670624c-0.05671692 7.396652 -3.9304352 14.183731 -10.1280365 17.745209c-6.1976013 3.5614624 -13.751312 3.3411865 -19.749603 -0.57592773l0 0c-2.5549622 8.858765 -9.746307 15.376968 -18.467125 16.738495c-8.72081 1.3615112 -17.407707 -2.677719 -22.307632 -10.372604l0 0c-6.006279 3.7928467 -13.213318 4.885437 -19.995354 3.0313263c-6.782028 -1.8541107 -12.567772 -6.498749 -16.052078 -12.886169l0 0c-6.137665 0.75213623 -12.071938 -2.5779114 -14.857662 -8.337433c-2.7857246 -5.7595215 -1.8298836 -12.722473 2.393139 -17.433151l0 0c-5.4749565 -3.3745117 -8.268608 -10.070656 -6.924179 -16.596664c1.3444328 -6.5260086 6.522297 -11.403053 12.833538 -12.087959z" fill-rule="evenodd"/><path stroke="#000000" stroke-width="1.0" stroke-linejoin="round" stroke-linecap="butt" d="m54.232704 125.94436l0 0c2.5836525 1.5924377 5.568371 2.3148117 8.553413 2.0701218m3.9097672 23.701035c1.2836761 -0.15730286 2.5419312 -0.49041748 3.742302 -0.99076843m32.303337 10.845215c-0.9028549 -1.4178619 -1.6587753 -2.932953 -2.2548752 -4.5194855m43.03119 -1.8466797l0 0c0.46580505 -1.615097 0.76760864 -3.277359 0.9003601 -4.959091m28.97615 -12.209564c0.060394287 -7.874878 -4.2107697 -15.085197 -10.978867 -18.533913m25.883362 -19.759193c-1.0960846 2.681549 -2.7693634 5.0603027 -4.8886414 6.9497757m-6.929611 -32.62223l0 0c0.18676758 1.0828705 0.27319336 2.1820068 0.25810242 3.282196m-28.90889 -11.321075l0 0c-1.0238953 1.261673 -1.8674316 2.6715698 -2.5043793 4.185791m-22.405098 -1.715683l0 0c-0.54564667 1.145958 -0.9530945 2.3585892 -1.2129669 3.6099396m-27.32302 0.9874115l0 0c1.5931244 0.9770889 3.0669785 2.153122 4.389183 3.5022583m-38.510136 20.310478l0 0c0.16210175 1.2474823 0.41822815 2.4795914 0.7659836 3.6847763" fill-rule="evenodd"/><path fill="#000000" d="m99.709366 109.44994l0 -10.671875l3.640625 0q2.4375 0 3.953125 1.515625q1.53125 1.515625 1.53125 3.828125q0 2.34375 -1.53125 3.84375q-1.53125 1.484375 -3.953125 1.484375l-3.640625 0zm3.640625 -1.1875q1.828125 0 2.953125 -1.140625q1.140625 -1.140625 1.140625 -3.0q0 -1.859375 -1.125 -3.0q-1.109375 -1.15625 -2.96875 -1.15625l-2.3125 0l0 8.296875l2.3125 0zm12.340652 1.1875l0 -0.875q-0.96875 1.0625 -2.5625 1.0625q-1.171875 0 -1.9375 -0.734375q-0.765625 -0.734375 -0.765625 -1.828125q0 -1.109375 0.75 -1.8125q0.765625 -0.71875 1.953125 -0.71875q1.671875 0 2.5625 1.046875l0 -1.390625q0 -0.78125 -0.5625 -1.203125q-0.546875 -0.421875 -1.390625 -0.421875q-1.359375 0 -2.359375 1.0625l-0.5625 -0.828125q1.234375 -1.28125 3.078125 -1.28125q1.421875 0 2.203125 0.6875q0.796875 0.6875 0.796875 1.921875l0 5.3125l-1.203125 0zm-2.125 -0.671875q1.421875 0 2.125 -0.953125l0 -1.46875q-0.703125 -0.953125 -2.125 -0.953125q-0.84375 0 -1.375 0.46875q-0.53125 0.46875 -0.53125 1.21875q0 0.75 0.53125 1.21875q0.53125 0.46875 1.375 0.46875zm7.682022 0.859375q-1.71875 0 -1.71875 -1.796875l0 -5.0625l-1.28125 0l0 -1.0625l1.28125 0l0 -2.109375l1.203125 0l0 2.109375l1.5625 0l0 1.0625l-1.5625 0l0 4.796875q0 0.4375 0.1875 0.71875q0.203125 0.28125 0.59375 0.28125q0.5 0 0.8125 -0.328125l0.359375 0.90625q-0.5 0.484375 -1.4375 0.484375zm7.57901 -0.1875l0 -0.875q-0.96875 1.0625 -2.5625 1.0625q-1.171875 0 -1.9375 -0.734375q-0.765625 -0.734375 -0.765625 -1.828125q0 -1.109375 0.75 -1.8125q0.765625 -0.71875 1.953125 -0.71875q1.671875 0 2.5625 1.046875l0 -1.390625q0 -0.78125 -0.5625 -1.203125q-0.546875 -0.421875 -1.390625 -0.421875q-1.359375 0 -2.359375 1.0625l-0.5625 -0.828125q1.234375 -1.28125 3.078125 -1.28125q1.421875 0 2.203125 0.6875q0.796875 0.6875 0.796875 1.921875l0 5.3125l-1.203125 0zm-2.125 -0.671875q1.421875 0 2.125 -0.953125l0 -1.46875q-0.703125 -0.953125 -2.125 -0.953125q-0.84375 0 -1.375 0.46875q-0.53125 0.46875 -0.53125 1.21875q0 0.75 0.53125 1.21875q0.53125 0.46875 1.375 0.46875z" fill-rule="nonzero"/><path fill="#000000" d="m94.77048 128.63745q-2.578125 0 -4.09375 -1.6875076l0.78125 -1.015625q0.65625 0.734375 1.53125 1.140625q0.890625 0.390625 1.828125 0.390625q1.15625 0 1.828125 -0.515625q0.6875 -0.515625 0.6875 -1.328125q0 -1.265625 -1.984375 -1.8125q-2.359375 -0.625 -3.015625 -0.984375q-0.640625 -0.375 -0.984375 -0.921875q-0.34375 -0.5625 -0.34375 -1.328125q0 -1.28125 1.03125 -2.109375q1.046875 -0.84375 2.640625 -0.84375q2.40625 0 3.796875 1.484375l-0.8125 0.96875q-1.140625 -1.265625 -3.078125 -1.265625q-0.96875 0 -1.59375 0.46875q-0.609375 0.453125 -0.609375 1.21875q0 0.5625 0.515625 0.953125q0.515625 0.390625 1.484375 0.625q2.28125 0.625 2.9375 1.03125q0.671875 0.40625 1.03125 0.984375q0.359375 0.578125 0.359375 1.421875q0 1.46875 -1.078125 2.296875q-1.0625 0.8281326 -2.859375 0.8281326zm9.251022 0q-1.6875 0 -2.765625 -1.1406326q-1.0625 -1.140625 -1.0625 -2.921875q0 -1.78125 1.0625 -2.90625q1.078125 -1.140625 2.765625 -1.140625q1.671875 0 2.75 1.140625q1.078125 1.125 1.078125 2.90625q0 1.78125 -1.078125 2.921875q-1.078125 1.1406326 -2.75 1.1406326zm0 -1.0625076q1.125 0 1.84375 -0.84375q0.71875 -0.84375 0.71875 -2.15625q0 -1.296875 -0.71875 -2.125q-0.71875 -0.84375 -1.84375 -0.84375q-1.125 0 -1.859375 0.828125q-0.71875 0.828125 -0.71875 2.140625q0 1.328125 0.71875 2.171875q0.71875 0.828125 1.859375 0.828125zm10.995773 0.8750076l0 -1.0937576q-0.453125 0.515625 -1.171875 0.9062576q-0.71875 0.375 -1.59375 0.375q-2.453125 0 -2.453125 -2.4531326l0 -5.46875l1.203125 0l0 5.09375q0 0.90625 0.40625 1.34375q0.421875 0.421875 1.3125 0.421875q0.703125 0 1.328125 -0.34375q0.625 -0.359375 0.96875 -0.828125l0 -5.6875l1.1875 0l0 7.7343826l-1.1875 0zm3.5972748 0l0 -7.7343826l1.203125 0l0 1.25q1.0625 -1.40625 2.5625 -1.40625l0 1.234375l-0.46875 -0.046875q-0.546875 0 -1.203125 0.390625q-0.65625 0.390625 -0.890625 0.84375l0 5.4687576l-1.203125 0zm8.686264 0.1875q-1.703125 0 -2.78125 -1.1406326q-1.078125 -1.15625 -1.078125 -2.921875q0 -1.734375 1.078125 -2.890625q1.078125 -1.15625 2.78125 -1.15625q1.796875 0 2.828125 1.34375l-0.796875 0.734375q-0.734375 -1.0 -1.96875 -1.0q-1.1875 0 -1.9375 0.828125q-0.734375 0.8125 -0.734375 2.140625q0 1.34375 0.734375 2.171875q0.734375 0.828125 1.9375 0.828125q1.21875 0 1.96875 -1.015625l0.796875 0.734375q-1.03125 1.3437576 -2.828125 1.3437576zm7.9981384 0q-1.75 0 -2.84375 -1.1250076q-1.09375 -1.140625 -1.09375 -2.9375q0 -1.703125 1.078125 -2.875q1.09375 -1.171875 2.734375 -1.171875q1.65625 0 2.671875 1.15625q1.03125 1.15625 1.03125 2.984375l0 0.3125l-6.25 0q0.0625 1.1875 0.84375 1.9375q0.796875 0.734375 1.9375 0.734375q1.40625 0 2.390625 -0.984375l0.578125 0.796875q-1.1875 1.1718826 -3.078125 1.1718826zm2.40625 -4.5468826q0 -1.0625 -0.703125 -1.8125q-0.703125 -0.75 -1.84375 -0.75q-1.078125 0 -1.796875 0.75q-0.703125 0.75 -0.734375 1.8125l5.078125 0z" fill-rule="nonzero"/><path fill="#cfe2f3" d="m235.28215 89.97926l0 0c0 -7.1001205 5.755783 -12.855904 12.855896 -12.855904l120.14647 0c3.409607 0 6.679535 1.354454 9.090485 3.7654037c2.4109497 2.4109497 3.7654114 5.6809006 3.7654114 9.0905l0 51.42206c0 7.100113 -5.755768 12.855896 -12.855896 12.855896l-120.14647 0c-7.100113 0 -12.855896 -5.755783 -12.855896 -12.855896z" fill-rule="evenodd"/><path stroke="#000000" stroke-width="2.0" stroke-linejoin="round" stroke-linecap="butt" d="m235.28215 89.97926l0 0c0 -7.1001205 5.755783 -12.855904 12.855896 -12.855904l120.14647 0c3.409607 0 6.679535 1.354454 9.090485 3.7654037c2.4109497 2.4109497 3.7654114 5.6809006 3.7654114 9.0905l0 51.42206c0 7.100113 -5.755768 12.855896 -12.855896 12.855896l-120.14647 0c-7.100113 0 -12.855896 -5.755783 -12.855896 -12.855896z" fill-rule="evenodd"/><path fill="#000000" d="m249.11002 112.050285l0 -10.671875l4.203125 0q2.53125 0 4.09375 1.46875q1.5625 1.46875 1.5625 3.875q0 2.390625 -1.5625 3.859375q-1.5625 1.46875 -4.09375 1.46875l-4.203125 0zm4.203125 -2.0q1.484375 0 2.40625 -0.9375q0.9375 -0.9375 0.9375 -2.390625q0 -1.515625 -0.890625 -2.421875q-0.890625 -0.921875 -2.453125 -0.921875l-1.9375 0l0 6.671875l1.9375 0zm10.816162 2.1875q-1.796875 0 -2.9375 -1.140625q-1.140625 -1.15625 -1.140625 -2.921875q0 -1.75 1.140625 -2.890625q1.140625 -1.15625 2.9375 -1.15625q1.796875 0 2.9375 1.15625q1.15625 1.140625 1.15625 2.890625q0 1.78125 -1.15625 2.921875q-1.140625 1.140625 -2.9375 1.140625zm0 -1.796875q0.875 0 1.421875 -0.625q0.5625 -0.640625 0.5625 -1.640625q0 -0.953125 -0.5625 -1.59375q-0.546875 -0.640625 -1.421875 -0.640625q-0.84375 0 -1.40625 0.625q-0.5625 0.609375 -0.5625 1.609375q0 1.03125 0.5625 1.65625q0.5625 0.609375 1.40625 0.609375zm12.387146 1.609375l-1.640625 -5.265625l-1.625 5.265625l-2.171875 0l-2.359375 -7.734375l2.109375 0l1.4375 5.203125l1.703125 -5.203125l1.8125 0l1.6875 5.203125l1.4375 -5.203125l2.109375 0l-2.34375 7.734375l-2.15625 0zm10.725891 0l0 -4.671875q0 -1.4375 -1.421875 -1.4375q-1.09375 0 -1.75 0.90625l0 5.203125l-2.03125 0l0 -7.734375l2.03125 0l0 1.015625q0.359375 -0.453125 1.046875 -0.828125q0.6875 -0.375 1.65625 -0.375q1.28125 0 1.890625 0.671875q0.609375 0.65625 0.609375 1.796875l0 5.453125l-2.03125 0zm4.060913 0l0 -10.671875l2.03125 0l0 10.671875l-2.03125 0zm7.626129 0.1875q-1.796875 0 -2.9375 -1.140625q-1.140625 -1.15625 -1.140625 -2.921875q0 -1.75 1.140625 -2.890625q1.140625 -1.15625 2.9375 -1.15625q1.796875 0 2.9375 1.15625q1.15625 1.140625 1.15625 2.890625q0 1.78125 -1.15625 2.921875q-1.140625 1.140625 -2.9375 1.140625zm0 -1.796875q0.875 0 1.421875 -0.625q0.5625 -0.640625 0.5625 -1.640625q0 -0.953125 -0.5625 -1.59375q-0.546875 -0.640625 -1.421875 -0.640625q-0.84375 0 -1.40625 0.625q-0.5625 0.609375 -0.5625 1.609375q0 1.03125 0.5625 1.65625q0.5625 0.609375 1.40625 0.609375zm10.230896 1.609375l0 -0.796875q-0.84375 0.984375 -2.4375 0.984375q-1.125 0 -1.90625 -0.703125q-0.78125 -0.71875 -0.78125 -1.859375q0 -1.125 0.734375 -1.796875q0.75 -0.6875 1.953125 -0.6875q1.65625 0 2.4375 0.9375l0 -1.03125q0 -0.59375 -0.46875 -0.9375q-0.453125 -0.359375 -1.21875 -0.359375q-1.28125 0 -2.25 0.90625l-0.78125 -1.359375q1.421875 -1.21875 3.375 -1.21875q1.640625 0 2.515625 0.765625q0.875 0.75 0.875 2.171875l0 4.984375l-2.046875 0zm-1.625 -1.1875q1.125 0 1.625 -0.671875l0 -0.953125q-0.5 -0.671875 -1.625 -0.671875q-0.609375 0 -1.03125 0.3125q-0.421875 0.296875 -0.421875 0.859375q0 0.53125 0.421875 0.828125q0.421875 0.296875 1.03125 0.296875zm10.984894 1.1875l0 -0.984375q-0.953125 1.171875 -2.375 1.171875q-1.53125 0 -2.484375 -1.09375q-0.9375 -1.109375 -0.9375 -2.953125q0 -1.828125 0.9375 -2.9375q0.953125 -1.125 2.484375 -1.125q1.453125 0 2.375 1.1875l0 -3.9375l2.0625 0l0 10.671875l-2.0625 0zm-1.75 -1.609375q0.515625 0 1.0 -0.25q0.5 -0.25 0.75 -0.640625l0 -2.734375q-0.25 -0.375 -0.75 -0.625q-0.484375 -0.25 -1.0 -0.25q-0.859375 0 -1.40625 0.625q-0.546875 0.625 -0.546875 1.625q0 0.984375 0.515625 1.625q0.53125 0.625 1.4375 0.625zm9.92514 1.609375l0 -7.734375l2.03125 0l0 1.0625q0.40625 -0.515625 1.0625 -0.875q0.671875 -0.375 1.390625 -0.375l0 1.984375l-0.5625 -0.046875q-0.53125 0 -1.09375 0.265625q-0.546875 0.25 -0.796875 0.609375l0 5.109375l-2.03125 0zm10.38501 0l0 -0.796875q-0.84375 0.984375 -2.4375 0.984375q-1.125 0 -1.90625 -0.703125q-0.78125 -0.71875 -0.78125 -1.859375q0 -1.125 0.734375 -1.796875q0.75 -0.6875 1.953125 -0.6875q1.65625 0 2.4375 0.9375l0 -1.03125q0 -0.59375 -0.46875 -0.9375q-0.453125 -0.359375 -1.21875 -0.359375q-1.28125 0 -2.25 0.90625l-0.78125 -1.359375q1.421875 -1.21875 3.375 -1.21875q1.640625 0 2.515625 0.765625q0.875 0.75 0.875 2.171875l0 4.984375l-2.046875 0zm-1.625 -1.1875q1.125 0 1.625 -0.671875l0 -0.953125q-0.5 -0.671875 -1.625 -0.671875q-0.609375 0 -1.03125 0.3125q-0.421875 0.296875 -0.421875 0.859375q0 0.53125 0.421875 0.828125q0.421875 0.296875 1.03125 0.296875zm12.469269 1.1875l-1.640625 -5.265625l-1.625 5.265625l-2.171875 0l-2.359375 -7.734375l2.109375 0l1.4375 5.203125l1.703125 -5.203125l1.8125 0l1.6875 5.203125l1.4375 -5.203125l2.109375 0l-2.34375 7.734375l-2.15625 0z" fill-rule="nonzero"/><path fill="#000000" d="m254.36002 131.0503l0 -0.984375q-0.953125 1.171875 -2.375 1.171875q-1.53125 0 -2.484375 -1.09375q-0.9375 -1.109375 -0.9375 -2.9531326q0 -1.828125 0.9375 -2.9375q0.953125 -1.125 2.484375 -1.125q1.453125 0 2.375 1.1875l0 -3.9375l2.0625 0l0 10.671883l-2.0625 0zm-1.75 -1.609375q0.515625 0 1.0 -0.25q0.5 -0.25 0.75 -0.640625l0 -2.7343826q-0.25 -0.375 -0.75 -0.625q-0.484375 -0.25 -1.0 -0.25q-0.859375 0 -1.40625 0.625q-0.546875 0.625 -0.546875 1.625q0 0.9843826 0.515625 1.6250076q0.53125 0.625 1.4375 0.625zm10.454163 1.609375l0 -0.796875q-0.84375 0.984375 -2.4375 0.984375q-1.125 0 -1.90625 -0.703125q-0.78125 -0.71875 -0.78125 -1.859375q0 -1.1250076 0.734375 -1.7968826q0.75 -0.6875 1.953125 -0.6875q1.65625 0 2.4375 0.9375l0 -1.03125q0 -0.59375 -0.46875 -0.9375q-0.453125 -0.359375 -1.21875 -0.359375q-1.28125 0 -2.25 0.90625l-0.78125 -1.359375q1.421875 -1.21875 3.375 -1.21875q1.640625 0 2.515625 0.765625q0.875 0.75 0.875 2.171875l0 4.9843826l-2.046875 0zm-1.625 -1.1875q1.125 0 1.625 -0.671875l0 -0.953125q-0.5 -0.6718826 -1.625 -0.6718826q-0.609375 0 -1.03125 0.3125q-0.421875 0.29688263 -0.421875 0.8593826q0 0.53125 0.421875 0.828125q0.421875 0.296875 1.03125 0.296875zm8.266144 1.375q-2.1875 0 -2.1875 -2.109375l0 -4.0312576l-1.28125 0l0 -1.78125l1.28125 0l0 -2.109375l2.046875 0l0 2.109375l1.578125 0l0 1.78125l-1.578125 0l0 3.4843826q0 0.375 0.1875 0.625q0.1875 0.234375 0.515625 0.234375q0.484375 0 0.703125 -0.234375l0.4375 1.546875q-0.53125 0.484375 -1.703125 0.484375zm7.4548645 -0.1875l0 -0.796875q-0.84375 0.984375 -2.4375 0.984375q-1.125 0 -1.90625 -0.703125q-0.78125 -0.71875 -0.78125 -1.859375q0 -1.1250076 0.734375 -1.7968826q0.75 -0.6875 1.953125 -0.6875q1.65625 0 2.4375 0.9375l0 -1.03125q0 -0.59375 -0.46875 -0.9375q-0.453125 -0.359375 -1.21875 -0.359375q-1.28125 0 -2.25 0.90625l-0.78125 -1.359375q1.421875 -1.21875 3.375 -1.21875q1.640625 0 2.515625 0.765625q0.875 0.75 0.875 2.171875l0 4.9843826l-2.046875 0zm-1.625 -1.1875q1.125 0 1.625 -0.671875l0 -0.953125q-0.5 -0.6718826 -1.625 -0.6718826q-0.609375 0 -1.03125 0.3125q-0.421875 0.29688263 -0.421875 0.8593826q0 0.53125 0.421875 0.828125q0.421875 0.296875 1.03125 0.296875z" fill-rule="nonzero"/><path fill="#cfe2f3" d="m577.99603 89.980576l0 0c0 -7.1001205 5.7557983 -12.855904 12.855957 -12.855904l120.14642 0c3.409607 0 6.6795654 1.354454 9.090515 3.7654037c2.4109497 2.4109497 3.7653809 5.6809006 3.7653809 9.0905l0 51.42206c0 7.100113 -5.7557373 12.855896 -12.855896 12.855896l-120.14642 0c-7.1001587 0 -12.855957 -5.755783 -12.855957 -12.855896z" fill-rule="evenodd"/><path stroke="#000000" stroke-width="2.0" stroke-linejoin="round" stroke-linecap="butt" d="m577.99603 89.980576l0 0c0 -7.1001205 5.7557983 -12.855904 12.855957 -12.855904l120.14642 0c3.409607 0 6.6795654 1.354454 9.090515 3.7654037c2.4109497 2.4109497 3.7653809 5.6809006 3.7653809 9.0905l0 51.42206c0 7.100113 -5.7557373 12.855896 -12.855896 12.855896l-120.14642 0c-7.1001587 0 -12.855957 -5.755783 -12.855957 -12.855896z" fill-rule="evenodd"/><path fill="#000000" d="m591.8239 112.0516l0 -10.671875l4.984375 0q1.640625 0 2.609375 0.953125q0.96875 0.953125 0.96875 2.484375q0 1.515625 -1.0 2.484375q-1.0 0.953125 -2.578125 0.953125l-2.71875 0l0 3.796875l-2.265625 0zm4.6875 -5.796875q0.671875 0 1.109375 -0.375q0.453125 -0.390625 0.453125 -1.0625q0 -0.671875 -0.453125 -1.046875q-0.4375 -0.390625 -1.109375 -0.390625l-2.421875 0l0 2.875l2.421875 0zm5.249634 5.796875l0 -7.734375l2.03125 0l0 1.0625q0.40625 -0.515625 1.0625 -0.875q0.671875 -0.375 1.390625 -0.375l0 1.984375l-0.5625 -0.046875q-0.53125 0 -1.09375 0.265625q-0.546875 0.25 -0.796875 0.609375l0 5.109375l-2.03125 0zm9.38501 0.1875q-1.828125 0 -2.984375 -1.125q-1.140625 -1.125 -1.140625 -2.9375q0 -1.71875 1.140625 -2.875q1.140625 -1.171875 2.859375 -1.171875q1.703125 0 2.78125 1.1875q1.09375 1.171875 1.09375 3.078125l0 0.4375l-5.75 0q0.09375 0.734375 0.65625 1.265625q0.578125 0.53125 1.5625 0.53125q0.484375 0 1.078125 -0.203125q0.59375 -0.203125 0.984375 -0.5625l0.90625 1.3125q-0.578125 0.515625 -1.4375 0.796875q-0.84375 0.265625 -1.75 0.265625zm1.78125 -4.78125q-0.046875 -0.765625 -0.578125 -1.234375q-0.53125 -0.46875 -1.328125 -0.46875q-0.796875 0 -1.3125 0.484375q-0.515625 0.484375 -0.59375 1.21875l3.8125 0zm7.8480225 4.78125q-1.484375 0 -2.375 -1.171875l0 3.921875l-2.03125 0l0 -10.671875l2.03125 0l0 0.984375q0.921875 -1.171875 2.375 -1.171875q1.53125 0 2.46875 1.078125q0.953125 1.078125 0.953125 2.96875q0 1.859375 -0.9375 2.96875q-0.9375 1.09375 -2.484375 1.09375zm-0.640625 -1.796875q0.875 0 1.40625 -0.625q0.546875 -0.625 0.546875 -1.640625q0 -1.0 -0.546875 -1.609375q-0.53125 -0.625 -1.40625 -0.625q-0.5 0 -1.0 0.265625q-0.484375 0.25 -0.734375 0.609375l0 2.734375q0.25 0.375 0.734375 0.640625q0.5 0.25 1.0 0.25zm10.187439 1.609375l0 -0.796875q-0.84375 0.984375 -2.4375 0.984375q-1.125 0 -1.90625 -0.703125q-0.78125 -0.71875 -0.78125 -1.859375q0 -1.125 0.734375 -1.796875q0.75 -0.6875 1.953125 -0.6875q1.65625 0 2.4375 0.9375l0 -1.03125q0 -0.59375 -0.46875 -0.9375q-0.453125 -0.359375 -1.21875 -0.359375q-1.28125 0 -2.25 0.90625l-0.78125 -1.359375q1.421875 -1.21875 3.375 -1.21875q1.640625 0 2.515625 0.765625q0.875 0.75 0.875 2.171875l0 4.984375l-2.046875 0zm-1.625 -1.1875q1.125 0 1.625 -0.671875l0 -0.953125q-0.5 -0.671875 -1.625 -0.671875q-0.609375 0 -1.03125 0.3125q-0.421875 0.296875 -0.421875 0.859375q0 0.53125 0.421875 0.828125q0.421875 0.296875 1.03125 0.296875zm5.6879883 1.1875l0 -7.734375l2.03125 0l0 1.0625q0.40625 -0.515625 1.0625 -0.875q0.671875 -0.375 1.390625 -0.375l0 1.984375l-0.5625 -0.046875q-0.53125 0 -1.09375 0.265625q-0.546875 0.25 -0.796875 0.609375l0 5.109375l-2.03125 0zm9.38501 0.1875q-1.828125 0 -2.984375 -1.125q-1.140625 -1.125 -1.140625 -2.9375q0 -1.71875 1.140625 -2.875q1.140625 -1.171875 2.859375 -1.171875q1.703125 0 2.78125 1.1875q1.09375 1.171875 1.09375 3.078125l0 0.4375l-5.75 0q0.09375 0.734375 0.65625 1.265625q0.578125 0.53125 1.5625 0.53125q0.484375 0 1.078125 -0.203125q0.59375 -0.203125 0.984375 -0.5625l0.90625 1.3125q-0.578125 0.515625 -1.4375 0.796875q-0.84375 0.265625 -1.75 0.265625zm1.78125 -4.78125q-0.046875 -0.765625 -0.578125 -1.234375q-0.53125 -0.46875 -1.328125 -0.46875q-0.796875 0 -1.3125 0.484375q-0.515625 0.484375 -0.59375 1.21875l3.8125 0zm12.834656 4.59375l0 -0.984375q-0.953125 1.171875 -2.375 1.171875q-1.53125 0 -2.484375 -1.09375q-0.9375 -1.109375 -0.9375 -2.953125q0 -1.828125 0.9375 -2.9375q0.953125 -1.125 2.484375 -1.125q1.453125 0 2.375 1.1875l0 -3.9375l2.0625 0l0 10.671875l-2.0625 0zm-1.75 -1.609375q0.515625 0 1.0 -0.25q0.5 -0.25 0.75 -0.640625l0 -2.734375q-0.25 -0.375 -0.75 -0.625q-0.484375 -0.25 -1.0 -0.25q-0.859375 0 -1.40625 0.625q-0.546875 0.625 -0.546875 1.625q0 0.984375 0.515625 1.625q0.53125 0.625 1.4375 0.625zm10.454163 1.609375l0 -0.796875q-0.84375 0.984375 -2.4375 0.984375q-1.125 0 -1.90625 -0.703125q-0.78125 -0.71875 -0.78125 -1.859375q0 -1.125 0.734375 -1.796875q0.75 -0.6875 1.953125 -0.6875q1.65625 0 2.4375 0.9375l0 -1.03125q0 -0.59375 -0.46875 -0.9375q-0.453125 -0.359375 -1.21875 -0.359375q-1.28125 0 -2.25 0.90625l-0.78125 -1.359375q1.421875 -1.21875 3.375 -1.21875q1.640625 0 2.515625 0.765625q0.875 0.75 0.875 2.171875l0 4.984375l-2.046875 0zm-1.625 -1.1875q1.125 0 1.625 -0.671875l0 -0.953125q-0.5 -0.671875 -1.625 -0.671875q-0.609375 0 -1.03125 0.3125q-0.421875 0.296875 -0.421875 0.859375q0 0.53125 0.421875 0.828125q0.421875 0.296875 1.03125 0.296875zm8.266113 1.375q-2.1875 0 -2.1875 -2.109375l0 -4.03125l-1.28125 0l0 -1.78125l1.28125 0l0 -2.109375l2.046875 0l0 2.109375l1.578125 0l0 1.78125l-1.578125 0l0 3.484375q0 0.375 0.1875 0.625q0.1875 0.234375 0.515625 0.234375q0.484375 0 0.703125 -0.234375l0.4375 1.546875q-0.53125 0.484375 -1.703125 0.484375zm7.454895 -0.1875l0 -0.796875q-0.84375 0.984375 -2.4375 0.984375q-1.125 0 -1.90625 -0.703125q-0.78125 -0.71875 -0.78125 -1.859375q0 -1.125 0.734375 -1.796875q0.75 -0.6875 1.953125 -0.6875q1.65625 0 2.4375 0.9375l0 -1.03125q0 -0.59375 -0.46875 -0.9375q-0.453125 -0.359375 -1.21875 -0.359375q-1.28125 0 -2.25 0.90625l-0.78125 -1.359375q1.421875 -1.21875 3.375 -1.21875q1.640625 0 2.515625 0.765625q0.875 0.75 0.875 2.171875l0 4.984375l-2.046875 0zm-1.625 -1.1875q1.125 0 1.625 -0.671875l0 -0.953125q-0.5 -0.671875 -1.625 -0.671875q-0.609375 0 -1.03125 0.3125q-0.421875 0.296875 -0.421875 0.859375q0 0.53125 0.421875 0.828125q0.421875 0.296875 1.03125 0.296875zm10.221558 1.1875l0 -5.953125l-1.28125 0l0 -1.78125l1.28125 0l0 -0.40625q0 -1.25 0.71875 -1.96875q0.71875 -0.71875 1.890625 -0.71875q1.359375 0 2.015625 0.71875l-0.765625 1.203125q-0.328125 -0.328125 -0.84375 -0.328125q-0.421875 0 -0.703125 0.28125q-0.265625 0.265625 -0.265625 0.8125l0 0.40625l1.578125 0l0 1.78125l-1.578125 0l0 5.953125l-2.046875 0zm8.37262 0.1875q-1.796875 0 -2.9375 -1.140625q-1.140625 -1.15625 -1.140625 -2.921875q0 -1.75 1.140625 -2.890625q1.140625 -1.15625 2.9375 -1.15625q1.796875 0 2.9375 1.15625q1.15625 1.140625 1.15625 2.890625q0 1.78125 -1.15625 2.921875q-1.140625 1.140625 -2.9375 1.140625zm0 -1.796875q0.875 0 1.421875 -0.625q0.5625 -0.640625 0.5625 -1.640625q0 -0.953125 -0.5625 -1.59375q-0.546875 -0.640625 -1.421875 -0.640625q-0.84375 0 -1.40625 0.625q-0.5625 0.609375 -0.5625 1.609375q0 1.03125 0.5625 1.65625q0.5625 0.609375 1.40625 0.609375zm5.605896 1.609375l0 -7.734375l2.03125 0l0 1.0625q0.40625 -0.515625 1.0625 -0.875q0.671875 -0.375 1.390625 -0.375l0 1.984375l-0.5625 -0.046875q-0.53125 0 -1.09375 0.265625q-0.546875 0.25 -0.796875 0.609375l0 5.109375l-2.03125 0z" fill-rule="nonzero"/><path fill="#000000" d="m591.77704 131.0516l0 -10.671883l2.03125 0l0 10.671883l-2.03125 0zm7.6261597 0.1875q-1.796875 0 -2.9375 -1.140625q-1.140625 -1.15625 -1.140625 -2.9218826q0 -1.75 1.140625 -2.890625q1.140625 -1.15625 2.9375 -1.15625q1.796875 0 2.9375 1.15625q1.15625 1.140625 1.15625 2.890625q0 1.7812576 -1.15625 2.9218826q-1.140625 1.140625 -2.9375 1.140625zm0 -1.796875q0.875 0 1.421875 -0.625q0.5625 -0.640625 0.5625 -1.6406326q0 -0.953125 -0.5625 -1.59375q-0.546875 -0.640625 -1.421875 -0.640625q-0.84375 0 -1.40625 0.625q-0.5625 0.609375 -0.5625 1.609375q0 1.0312576 0.5625 1.6562576q0.5625 0.609375 1.40625 0.609375zm10.230896 1.609375l0 -0.796875q-0.84375 0.984375 -2.4375 0.984375q-1.125 0 -1.90625 -0.703125q-0.78125 -0.71875 -0.78125 -1.859375q0 -1.1250076 0.734375 -1.7968826q0.75 -0.6875 1.953125 -0.6875q1.65625 0 2.4375 0.9375l0 -1.03125q0 -0.59375 -0.46875 -0.9375q-0.453125 -0.359375 -1.21875 -0.359375q-1.28125 0 -2.25 0.90625l-0.78125 -1.359375q1.421875 -1.21875 3.375 -1.21875q1.640625 0 2.515625 0.765625q0.875 0.75 0.875 2.171875l0 4.9843826l-2.046875 0zm-1.625 -1.1875q1.125 0 1.625 -0.671875l0 -0.953125q-0.5 -0.6718826 -1.625 -0.6718826q-0.609375 0 -1.03125 0.3125q-0.421875 0.29688263 -0.421875 0.8593826q0 0.53125 0.421875 0.828125q0.421875 0.296875 1.03125 0.296875zm10.984863 1.1875l0 -0.984375q-0.953125 1.171875 -2.375 1.171875q-1.53125 0 -2.484375 -1.09375q-0.9375 -1.109375 -0.9375 -2.9531326q0 -1.828125 0.9375 -2.9375q0.953125 -1.125 2.484375 -1.125q1.453125 0 2.375 1.1875l0 -3.9375l2.0625 0l0 10.671883l-2.0625 0zm-1.75 -1.609375q0.515625 0 1.0 -0.25q0.5 -0.25 0.75 -0.640625l0 -2.7343826q-0.25 -0.375 -0.75 -0.625q-0.484375 -0.25 -1.0 -0.25q-0.859375 0 -1.40625 0.625q-0.546875 0.625 -0.546875 1.625q0 0.9843826 0.515625 1.6250076q0.53125 0.625 1.4375 0.625z" fill-rule="nonzero"/><path fill="#cfe2f3" d="m423.45932 77.12467l112.22049 0l0 64.27796l-12.855896 12.855896l-99.36459 0z" fill-rule="evenodd"/><path fill="#a5b4c2" d="m522.8239 154.25853l2.571167 -10.284714l10.284729 -2.5711823z" fill-rule="evenodd"/><path fill="#000000" fill-opacity="0.0" d="m522.8239 154.25853l2.571167 -10.284714l10.284729 -2.5711823l-12.855896 12.855896l-99.36459 0l0 -77.13386l112.22049 0l0 64.27796" fill-rule="evenodd"/><path stroke="#000000" stroke-width="1.0" stroke-linejoin="round" stroke-linecap="butt" d="m522.8239 154.25853l2.571167 -10.284714l10.284729 -2.5711823l-12.855896 12.855896l-99.36459 0l0 -77.13386l112.22049 0l0 64.27796" fill-rule="evenodd"/><path fill="#000000" d="m437.16245 105.81115q-2.578125 0 -4.09375 -1.6875l0.78125 -1.015625q0.65625 0.734375 1.53125 1.140625q0.890625 0.390625 1.828125 0.390625q1.15625 0 1.828125 -0.515625q0.6875 -0.515625 0.6875 -1.328125q0 -1.265625 -1.984375 -1.8125q-2.359375 -0.625 -3.015625 -0.984375q-0.640625 -0.375 -0.984375 -0.921875q-0.34375 -0.5625 -0.34375 -1.328125q0 -1.28125 1.03125 -2.109375q1.046875 -0.84375 2.640625 -0.84375q2.40625 0 3.796875 1.484375l-0.8125 0.96875q-1.140625 -1.265625 -3.078125 -1.265625q-0.96875 0 -1.59375 0.46875q-0.609375 0.453125 -0.609375 1.21875q0 0.5625 0.515625 0.953125q0.515625 0.390625 1.484375 0.625q2.28125 0.625 2.9375 1.03125q0.671875 0.40625 1.03125 0.984375q0.359375 0.578125 0.359375 1.421875q0 1.46875 -1.078125 2.296875q-1.0625 0.828125 -2.859375 0.828125zm7.557129 0q-1.71875 0 -1.71875 -1.796875l0 -5.0625l-1.28125 0l0 -1.0625l1.28125 0l0 -2.109375l1.203125 0l0 2.109375l1.5625 0l0 1.0625l-1.5625 0l0 4.796875q0 0.4375 0.1875 0.71875q0.203125 0.28125 0.59375 0.28125q0.5 0 0.8125 -0.328125l0.359375 0.90625q-0.5 0.484375 -1.4375 0.484375zm6.125885 0q-1.6875 0 -2.765625 -1.140625q-1.0625 -1.140625 -1.0625 -2.921875q0 -1.78125 1.0625 -2.90625q1.078125 -1.140625 2.765625 -1.140625q1.671875 0 2.75 1.140625q1.078125 1.125 1.078125 2.90625q0 1.78125 -1.078125 2.921875q-1.078125 1.140625 -2.75 1.140625zm0 -1.0625q1.125 0 1.84375 -0.84375q0.71875 -0.84375 0.71875 -2.15625q0 -1.296875 -0.71875 -2.125q-0.71875 -0.84375 -1.84375 -0.84375q-1.125 0 -1.859375 0.828125q-0.71875 0.828125 -0.71875 2.140625q0 1.328125 0.71875 2.171875q0.71875 0.828125 1.859375 0.828125zm5.7770386 0.875l0 -7.734375l1.203125 0l0 1.25q1.0625 -1.40625 2.5625 -1.40625l0 1.234375l-0.46875 -0.046875q-0.546875 0 -1.203125 0.390625q-0.65625 0.390625 -0.890625 0.84375l0 5.46875l-1.203125 0zm8.764374 0.1875q-1.75 0 -2.84375 -1.125q-1.09375 -1.140625 -1.09375 -2.9375q0 -1.703125 1.078125 -2.875q1.09375 -1.171875 2.734375 -1.171875q1.65625 0 2.671875 1.15625q1.03125 1.15625 1.03125 2.984375l0 0.3125l-6.25 0q0.0625 1.1875 0.84375 1.9375q0.796875 0.734375 1.9375 0.734375q1.40625 0 2.390625 -0.984375l0.578125 0.796875q-1.1875 1.171875 -3.078125 1.171875zm2.40625 -4.546875q0 -1.0625 -0.703125 -1.8125q-0.703125 -0.75 -1.84375 -0.75q-1.078125 0 -1.796875 0.75q-0.703125 0.75 -0.734375 1.8125l5.078125 0zm12.839142 4.359375l0 -1.15625q-0.421875 0.59375 -1.109375 0.96875q-0.671875 0.375 -1.5 0.375q-1.546875 0 -2.5 -1.09375q-0.9375 -1.109375 -0.9375 -2.953125q0 -1.859375 0.953125 -2.953125q0.953125 -1.109375 2.484375 -1.109375q0.78125 0 1.46875 0.359375q0.6875 0.359375 1.140625 1.0l0 -4.109375l1.203125 0l0 10.671875l-1.203125 0zm-2.3125 -0.875q0.71875 0 1.359375 -0.34375q0.640625 -0.359375 0.953125 -0.875l0 -3.5q-0.3125 -0.515625 -0.953125 -0.875q-0.640625 -0.375 -1.359375 -0.375q-1.125 0 -1.8125 0.8125q-0.671875 0.8125 -0.671875 2.171875q0 1.328125 0.671875 2.15625q0.671875 0.828125 1.8125 0.828125zm10.746887 0.875l0 -0.875q-0.96875 1.0625 -2.5625 1.0625q-1.171875 0 -1.9375 -0.734375q-0.765625 -0.734375 -0.765625 -1.828125q0 -1.109375 0.75 -1.8125q0.765625 -0.71875 1.953125 -0.71875q1.671875 0 2.5625 1.046875l0 -1.390625q0 -0.78125 -0.5625 -1.203125q-0.546875 -0.421875 -1.390625 -0.421875q-1.359375 0 -2.359375 1.0625l-0.5625 -0.828125q1.234375 -1.28125 3.078125 -1.28125q1.421875 0 2.203125 0.6875q0.796875 0.6875 0.796875 1.921875l0 5.3125l-1.203125 0zm-2.125 -0.671875q1.421875 0 2.125 -0.953125l0 -1.46875q-0.703125 -0.953125 -2.125 -0.953125q-0.84375 0 -1.375 0.46875q-0.53125 0.46875 -0.53125 1.21875q0 0.75 0.53125 1.21875q0.53125 0.46875 1.375 0.46875zm7.6820374 0.859375q-1.71875 0 -1.71875 -1.796875l0 -5.0625l-1.28125 0l0 -1.0625l1.28125 0l0 -2.109375l1.203125 0l0 2.109375l1.5625 0l0 1.0625l-1.5625 0l0 4.796875q0 0.4375 0.1875 0.71875q0.203125 0.28125 0.59375 0.28125q0.5 0 0.8125 -0.328125l0.359375 0.90625q-0.5 0.484375 -1.4375 0.484375zm7.57901 -0.1875l0 -0.875q-0.96875 1.0625 -2.5625 1.0625q-1.171875 0 -1.9375 -0.734375q-0.765625 -0.734375 -0.765625 -1.828125q0 -1.109375 0.75 -1.8125q0.765625 -0.71875 1.953125 -0.71875q1.671875 0 2.5625 1.046875l0 -1.390625q0 -0.78125 -0.5625 -1.203125q-0.546875 -0.421875 -1.390625 -0.421875q-1.359375 0 -2.359375 1.0625l-0.5625 -0.828125q1.234375 -1.28125 3.078125 -1.28125q1.421875 0 2.203125 0.6875q0.796875 0.6875 0.796875 1.921875l0 5.3125l-1.203125 0zm-2.125 -0.671875q1.421875 0 2.125 -0.953125l0 -1.46875q-0.703125 -0.953125 -2.125 -0.953125q-0.84375 0 -1.375 0.46875q-0.53125 0.46875 -0.53125 1.21875q0 0.75 0.53125 1.21875q0.53125 0.46875 1.375 0.46875z" fill-rule="nonzero"/><path fill="#000000" d="m433.66245 124.62365l0 -10.671875l1.203125 0l0 10.671875l-1.203125 0zm6.975006 0.1875q-1.6875 0 -2.765625 -1.140625q-1.0625 -1.140625 -1.0625 -2.921875q0 -1.78125 1.0625 -2.90625q1.078125 -1.140625 2.765625 -1.140625q1.671875 0 2.75 1.140625q1.078125 1.125 1.078125 2.90625q0 1.78125 -1.078125 2.921875q-1.078125 1.140625 -2.75 1.140625zm0 -1.0625q1.125 0 1.84375 -0.84375q0.71875 -0.84375 0.71875 -2.15625q0 -1.296875 -0.71875 -2.125q-0.71875 -0.84375 -1.84375 -0.84375q-1.125 0 -1.859375 0.828125q-0.71875 0.828125 -0.71875 2.140625q0 1.328125 0.71875 2.171875q0.71875 0.828125 1.859375 0.828125zm9.183258 1.0625q-1.703125 0 -2.78125 -1.140625q-1.078125 -1.15625 -1.078125 -2.921875q0 -1.734375 1.078125 -2.890625q1.078125 -1.15625 2.78125 -1.15625q1.796875 0 2.828125 1.34375l-0.796875 0.734375q-0.734375 -1.0 -1.96875 -1.0q-1.1875 0 -1.9375 0.828125q-0.734375 0.8125 -0.734375 2.140625q0 1.34375 0.734375 2.171875q0.734375 0.828125 1.9375 0.828125q1.21875 0 1.96875 -1.015625l0.796875 0.734375q-1.03125 1.34375 -2.828125 1.34375zm9.341888 -0.1875l0 -0.875q-0.96875 1.0625 -2.5625 1.0625q-1.171875 0 -1.9375 -0.734375q-0.765625 -0.734375 -0.765625 -1.828125q0 -1.109375 0.75 -1.8125q0.765625 -0.71875 1.953125 -0.71875q1.671875 0 2.5625 1.046875l0 -1.390625q0 -0.78125 -0.5625 -1.203125q-0.546875 -0.421875 -1.390625 -0.421875q-1.359375 0 -2.359375 1.0625l-0.5625 -0.828125q1.234375 -1.28125 3.078125 -1.28125q1.421875 0 2.203125 0.6875q0.796875 0.6875 0.796875 1.921875l0 5.3125l-1.203125 0zm-2.125 -0.671875q1.421875 0 2.125 -0.953125l0 -1.46875q-0.703125 -0.953125 -2.125 -0.953125q-0.84375 0 -1.375 0.46875q-0.53125 0.46875 -0.53125 1.21875q0 0.75 0.53125 1.21875q0.53125 0.46875 1.375 0.46875zm5.7289124 0.671875l0 -10.671875l1.203125 0l0 10.671875l-1.203125 0zm3.600006 0l0 -10.671875l1.203125 0l0 10.671875l-1.203125 0zm3.350006 1.9375q0.265625 0.125 0.65625 0.125q0.40625 0 0.671875 -0.171875q0.28125 -0.15625 0.484375 -0.640625l0.515625 -1.171875l-3.234375 -7.8125l1.296875 0l2.578125 6.34375l2.5625 -6.34375l1.3125 0l-3.875 9.296875q-0.640625 1.546875 -2.28125 1.578125q-0.453125 0 -0.875 -0.109375l0.1875 -1.09375z" fill-rule="nonzero"/><path fill="#cfe2f3" d="m779.3421 96.909584l0 0c-1.1760864 -9.051147 2.6853638 -18.011238 9.945801 -23.07817c7.260498 -5.0669327 16.646667 -5.3520737 24.175598 -0.73443604l0 0c2.6669922 -5.262718 7.54834 -8.8962555 13.167603 -9.801548c5.6192017 -0.9052925 11.316284 1.0239906 15.367981 5.2042885l0 0c2.2719116 -4.771515 6.73291 -7.9773636 11.799927 -8.479942c5.0670166 -0.50258255 10.02301 1.7692337 13.109314 6.009285l0 0c4.104553 -5.0577927 10.635071 -7.187332 16.765686 -5.4671593c6.130615 1.7201767 10.760193 6.981106 11.88562 13.506367l0 0c5.0288086 1.4364319 9.217651 5.088043 11.484375 10.01136c2.2666626 4.9233246 2.388855 10.635391 0.3348999 15.660393l0 0c4.9518433 6.7491226 6.1102295 15.742249 3.0427856 23.623306c-3.0674438 7.8810577 -9.899841 13.466003 -17.947449 14.670624c-0.05670166 7.396652 -3.93042 14.183731 -10.128052 17.745209c-6.197571 3.5614624 -13.751282 3.3411865 -19.749573 -0.57592773l0 0c-2.5549927 8.858765 -9.746338 15.376968 -18.467163 16.738495c-8.720764 1.3615112 -17.407654 -2.677719 -22.307617 -10.372604l0 0c-6.0062866 3.7928467 -13.213318 4.885437 -19.995361 3.0313263c-6.7819824 -1.8541107 -12.567749 -6.498749 -16.052063 -12.886169l0 0c-6.1376343 0.75213623 -12.07196 -2.5779114 -14.857666 -8.337433c-2.7857056 -5.7595215 -1.829895 -12.722473 2.3931274 -17.433151l0 0c-5.4749146 -3.3745117 -8.268616 -10.070656 -6.9241333 -16.596664c1.3444214 -6.5260086 6.522278 -11.403053 12.833496 -12.087959z" fill-rule="evenodd"/><path fill="#000000" fill-opacity="0.0" d="m773.31146 125.94305l0 0c2.5836182 1.5924377 5.5683594 2.3148117 8.553406 2.0701218m3.909729 23.701035c1.2836914 -0.15730286 2.5419312 -0.49041748 3.7423096 -0.99076843m32.303345 10.845215c-0.90283203 -1.4178619 -1.6587524 -2.932953 -2.2548828 -4.5194855m43.03119 -1.8466797l0 0c0.4658203 -1.615097 0.76763916 -3.277359 0.9003906 -4.959091m28.976135 -12.209564c0.06036377 -7.874878 -4.2107544 -15.085197 -10.978882 -18.533913m25.883362 -19.759193c-1.0960693 2.681549 -2.7693481 5.0603027 -4.888611 6.9497757m-6.9296265 -32.62223l0 0c0.18676758 1.0828705 0.27319336 2.1820068 0.25811768 3.282196m-28.908875 -11.321075l0 0c-1.0239258 1.261673 -1.8674927 2.6715698 -2.5043945 4.185791m-22.40509 -1.715683l0 0c-0.5456543 1.145958 -0.953125 2.3585892 -1.2130127 3.6099396m-27.322998 0.9874115l0 0c1.5931396 0.9770889 3.0669556 2.153122 4.389221 3.5022583m-38.510193 20.310478l0 0c0.16210938 1.2474823 0.41827393 2.4795914 0.7659912 3.6847763" fill-rule="evenodd"/><path stroke="#000000" stroke-width="1.0" stroke-linejoin="round" stroke-linecap="butt" d="m779.3421 96.909584l0 0c-1.1760864 -9.051147 2.6853638 -18.011238 9.945801 -23.07817c7.260498 -5.0669327 16.646667 -5.3520737 24.175598 -0.73443604l0 0c2.6669922 -5.262718 7.54834 -8.8962555 13.167603 -9.801548c5.6192017 -0.9052925 11.316284 1.0239906 15.367981 5.2042885l0 0c2.2719116 -4.771515 6.73291 -7.9773636 11.799927 -8.479942c5.0670166 -0.50258255 10.02301 1.7692337 13.109314 6.009285l0 0c4.104553 -5.0577927 10.635071 -7.187332 16.765686 -5.4671593c6.130615 1.7201767 10.760193 6.981106 11.88562 13.506367l0 0c5.0288086 1.4364319 9.217651 5.088043 11.484375 10.01136c2.2666626 4.9233246 2.388855 10.635391 0.3348999 15.660393l0 0c4.9518433 6.7491226 6.1102295 15.742249 3.0427856 23.623306c-3.0674438 7.8810577 -9.899841 13.466003 -17.947449 14.670624c-0.05670166 7.396652 -3.93042 14.183731 -10.128052 17.745209c-6.197571 3.5614624 -13.751282 3.3411865 -19.749573 -0.57592773l0 0c-2.5549927 8.858765 -9.746338 15.376968 -18.467163 16.738495c-8.720764 1.3615112 -17.407654 -2.677719 -22.307617 -10.372604l0 0c-6.0062866 3.7928467 -13.213318 4.885437 -19.995361 3.0313263c-6.7819824 -1.8541107 -12.567749 -6.498749 -16.052063 -12.886169l0 0c-6.1376343 0.75213623 -12.07196 -2.5779114 -14.857666 -8.337433c-2.7857056 -5.7595215 -1.829895 -12.722473 2.3931274 -17.433151l0 0c-5.4749146 -3.3745117 -8.268616 -10.070656 -6.9241333 -16.596664c1.3444214 -6.5260086 6.522278 -11.403053 12.833496 -12.087959z" fill-rule="evenodd"/><path stroke="#000000" stroke-width="1.0" stroke-linejoin="round" stroke-linecap="butt" d="m773.31146 125.94305l0 0c2.5836182 1.5924377 5.5683594 2.3148117 8.553406 2.0701218m3.909729 23.701035c1.2836914 -0.15730286 2.5419312 -0.49041748 3.7423096 -0.99076843m32.303345 10.845215c-0.90283203 -1.4178619 -1.6587524 -2.932953 -2.2548828 -4.5194855m43.03119 -1.8466797l0 0c0.4658203 -1.615097 0.76763916 -3.277359 0.9003906 -4.959091m28.976135 -12.209564c0.06036377 -7.874878 -4.2107544 -15.085197 -10.978882 -18.533913m25.883362 -19.759193c-1.0960693 2.681549 -2.7693481 5.0603027 -4.888611 6.9497757m-6.9296265 -32.62223l0 0c0.18676758 1.0828705 0.27319336 2.1820068 0.25811768 3.282196m-28.908875 -11.321075l0 0c-1.0239258 1.261673 -1.8674927 2.6715698 -2.5043945 4.185791m-22.40509 -1.715683l0 0c-0.5456543 1.145958 -0.953125 2.3585892 -1.2130127 3.6099396m-27.322998 0.9874115l0 0c1.5931396 0.9770889 3.0669556 2.153122 4.389221 3.5022583m-38.510193 20.310478l0 0c0.16210938 1.2474823 0.41827393 2.4795914 0.7659912 3.6847763" fill-rule="evenodd"/><path fill="#000000" d="m824.02014 99.94863l0 -10.671875l4.75 0q1.359375 0 2.171875 0.75q0.8125 0.734375 0.8125 1.96875q0 0.9375 -0.515625 1.59375q-0.515625 0.65625 -1.34375 0.859375q0.84375 0.125 1.453125 0.890625q0.625 0.765625 0.625 1.734375q0 1.3125 -0.828125 2.09375q-0.828125 0.78125 -2.265625 0.78125l-4.859375 0zm4.53125 -6.046875q0.90625 0 1.359375 -0.484375q0.46875 -0.5 0.46875 -1.234375q0 -0.71875 -0.46875 -1.21875q-0.453125 -0.5 -1.359375 -0.5l-3.203125 0l0 3.4375l3.203125 0zm0.0625 4.859375q0.9375 0 1.453125 -0.484375q0.53125 -0.484375 0.53125 -1.359375q0 -0.8125 -0.546875 -1.3125q-0.546875 -0.515625 -1.4375 -0.515625l-3.265625 0l0 3.671875l3.265625 0zm10.329651 1.375q-2.34375 0 -3.828125 -1.5625q-1.46875 -1.5625 -1.46875 -3.953125q0 -2.40625 1.484375 -3.953125q1.484375 -1.5625 3.8125 -1.5625q2.359375 0 3.828125 1.5625q1.46875 1.5625 1.46875 3.953125q0 2.40625 -1.46875 3.9375l1.015625 1.09375l-0.921875 0.796875l-1.046875 -1.109375q-1.25 0.796875 -2.875 0.796875zm0 -1.171875q1.140625 0 2.03125 -0.546875l-1.515625 -1.65625l0.921875 -0.78125l1.515625 1.625q0.96875 -1.203125 0.96875 -2.984375q0 -1.921875 -1.09375 -3.125q-1.078125 -1.203125 -2.828125 -1.203125q-1.71875 0 -2.828125 1.1875q-1.09375 1.171875 -1.09375 3.140625q0 1.921875 1.078125 3.140625q1.09375 1.203125 2.84375 1.203125z" fill-rule="nonzero"/><path fill="#000000" d="m806.8121 118.94863l0 -10.671875l6.984375 0l0 1.1875l-5.65625 0l0 3.4375l5.546875 0l0 1.1875l-5.546875 0l0 3.671875l5.65625 0l0 1.1875l-6.984375 0zm14.057129 0l-2.3125 -3.171875l-2.328125 3.171875l-1.375 0l2.96875 -3.96875l-2.796875 -3.765625l1.390625 0l2.140625 2.953125l2.140625 -2.953125l1.390625 0l-2.796875 3.765625l2.96875 3.96875l-1.390625 0zm4.729187 0.1875q-1.71875 0 -1.71875 -1.796875l0 -5.0625l-1.28125 0l0 -1.0625l1.28125 0l0 -2.109375l1.203125 0l0 2.109375l1.5625 0l0 1.0625l-1.5625 0l0 4.796875q0 0.4375 0.1875 0.71875q0.203125 0.28125 0.59375 0.28125q0.5 0 0.8125 -0.328125l0.359375 0.90625q-0.5 0.484375 -1.4375 0.484375zm6.2352295 0q-1.75 0 -2.84375 -1.125q-1.09375 -1.140625 -1.09375 -2.9375q0 -1.703125 1.078125 -2.875q1.09375 -1.171875 2.734375 -1.171875q1.65625 0 2.671875 1.15625q1.03125 1.15625 1.03125 2.984375l0 0.3125l-6.25 0q0.0625 1.1875 0.84375 1.9375q0.796875 0.734375 1.9375 0.734375q1.40625 0 2.390625 -0.984375l0.578125 0.796875q-1.1875 1.171875 -3.078125 1.171875zm2.40625 -4.546875q0 -1.0625 -0.703125 -1.8125q-0.703125 -0.75 -1.84375 -0.75q-1.078125 0 -1.796875 0.75q-0.703125 0.75 -0.734375 1.8125l5.078125 0zm3.1173706 4.359375l0 -7.734375l1.203125 0l0 1.25q1.0625 -1.40625 2.5625 -1.40625l0 1.234375l-0.46875 -0.046875q-0.546875 0 -1.203125 0.390625q-0.65625 0.390625 -0.890625 0.84375l0 5.46875l-1.203125 0zm10.498779 0l0 -5.0625q0 -1.015625 -0.484375 -1.390625q-0.46875 -0.390625 -1.25 -0.390625q-0.671875 0 -1.328125 0.359375q-0.640625 0.359375 -0.953125 0.84375l0 5.640625l-1.203125 0l0 -7.734375l1.203125 0l0 1.125q0.484375 -0.578125 1.21875 -0.9375q0.734375 -0.375 1.53125 -0.375q2.453125 0 2.453125 2.5l0 5.421875l-1.1875 0zm8.425415 0l0 -0.875q-0.96875 1.0625 -2.5625 1.0625q-1.171875 0 -1.9375 -0.734375q-0.765625 -0.734375 -0.765625 -1.828125q0 -1.109375 0.75 -1.8125q0.765625 -0.71875 1.953125 -0.71875q1.671875 0 2.5625 1.046875l0 -1.390625q0 -0.78125 -0.5625 -1.203125q-0.546875 -0.421875 -1.390625 -0.421875q-1.359375 0 -2.359375 1.0625l-0.5625 -0.828125q1.234375 -1.28125 3.078125 -1.28125q1.421875 0 2.203125 0.6875q0.796875 0.6875 0.796875 1.921875l0 5.3125l-1.203125 0zm-2.125 -0.671875q1.421875 0 2.125 -0.953125l0 -1.46875q-0.703125 -0.953125 -2.125 -0.953125q-0.84375 0 -1.375 0.46875q-0.53125 0.46875 -0.53125 1.21875q0 0.75 0.53125 1.21875q0.53125 0.46875 1.375 0.46875zm5.728882 0.671875l0 -10.671875l1.203125 0l0 10.671875l-1.203125 0z" fill-rule="nonzero"/><path fill="#000000" d="m818.89276 137.94864l0 -9.484375l-3.375 0l0 -1.1875076l8.09375 0l0 1.1875076l-3.390625 0l0 9.484375l-1.328125 0zm9.740601 0l0 -0.875q-0.96875 1.0625 -2.5625 1.0625q-1.171875 0 -1.9375 -0.734375q-0.765625 -0.734375 -0.765625 -1.828125q0 -1.109375 0.75 -1.8125q0.765625 -0.71875 1.953125 -0.71875q1.671875 0 2.5625 1.046875l0 -1.390625q0 -0.78125 -0.5625 -1.203125q-0.546875 -0.421875 -1.390625 -0.421875q-1.359375 0 -2.359375 1.0625l-0.5625 -0.828125q1.234375 -1.28125 3.078125 -1.28125q1.421875 0 2.203125 0.6875q0.796875 0.6875 0.796875 1.921875l0 5.3125l-1.203125 0zm-2.125 -0.671875q1.421875 0 2.125 -0.953125l0 -1.46875q-0.703125 -0.953125 -2.125 -0.953125q-0.84375 0 -1.375 0.46875q-0.53125 0.46875 -0.53125 1.21875q0 0.75 0.53125 1.21875q0.53125 0.46875 1.375 0.46875zm6.932068 -1.421875q0.3125 0.515625 0.9375 0.875q0.640625 0.34375 1.359375 0.34375q1.140625 0 1.8125 -0.828125q0.6875 -0.828125 0.6875 -2.15625q0 -1.34375 -0.671875 -2.15625q-0.671875 -0.828125 -1.828125 -0.828125q-0.71875 0 -1.359375 0.375q-0.625 0.359375 -0.9375 0.875l0 3.5zm-1.203125 2.09375l0 -10.671883l1.203125 0l0 4.1093826q0.984375 -1.359375 2.609375 -1.359375q1.53125 0 2.484375 1.125q0.953125 1.109375 0.953125 2.9375q0 1.859375 -0.953125 2.953125q-0.953125 1.09375 -2.484375 1.09375q-0.828125 0 -1.515625 -0.375q-0.671875 -0.375 -1.09375 -0.96875l0 1.15625l-1.203125 0zm9.200012 0l0 -10.671883l1.203125 0l0 10.671883l-1.203125 0zm7.0843506 0.1875q-1.75 0 -2.84375 -1.125q-1.09375 -1.140625 -1.09375 -2.9375q0 -1.703125 1.078125 -2.875q1.09375 -1.171875 2.734375 -1.171875q1.65625 0 2.671875 1.15625q1.03125 1.15625 1.03125 2.984375l0 0.3125l-6.25 0q0.0625 1.1875 0.84375 1.9375q0.796875 0.734375 1.9375 0.734375q1.40625 0 2.390625 -0.984375l0.578125 0.796875q-1.1875 1.171875 -3.078125 1.171875zm2.40625 -4.546875q0 -1.0625 -0.703125 -1.8125q-0.703125 -0.75 -1.84375 -0.75q-1.078125 0 -1.796875 0.75q-0.703125 0.75 -0.734375 1.8125l5.078125 0z" fill-rule="nonzero"/><path fill="#000000" fill-opacity="0.0" d="m192.8438 115.68992l42.4252 0" fill-rule="evenodd"/><path stroke="#000000" stroke-width="1.0" stroke-linejoin="round" stroke-linecap="butt" d="m192.8438 115.68992l38.998108 0" fill-rule="evenodd"/><path fill="#000000" stroke="#000000" stroke-width="1.0" stroke-linecap="butt" d="m231.8419 115.68992l-1.124588 1.124588l3.0897675 -1.124588l-3.0897675 -1.1245804z" fill-rule="evenodd"/><path fill="#000000" fill-opacity="0.0" d="m381.1404 115.69029l42.33072 0" fill-rule="evenodd"/><path stroke="#000000" stroke-width="1.0" stroke-linejoin="round" stroke-linecap="butt" d="m381.1404 115.69029l38.903625 0" fill-rule="evenodd"/><path fill="#000000" stroke="#000000" stroke-width="1.0" stroke-linecap="butt" d="m420.04404 115.69029l-1.1245728 1.1245804l3.0897522 -1.1245804l-3.0897522 -1.124588z" fill-rule="evenodd"/><path fill="#000000" fill-opacity="0.0" d="m535.6798 115.691605l42.33069 0" fill-rule="evenodd"/><path stroke="#000000" stroke-width="1.0" stroke-linejoin="round" stroke-linecap="butt" d="m535.6798 115.691605l38.903625 0" fill-rule="evenodd"/><path fill="#000000" stroke="#000000" stroke-width="1.0" stroke-linecap="butt" d="m574.58344 115.691605l-1.1246338 1.1245804l3.0897827 -1.1245804l-3.0897827 -1.124588z" fill-rule="evenodd"/><path fill="#000000" fill-opacity="0.0" d="m723.8543 115.691605l42.771667 0" fill-rule="evenodd"/><path stroke="#000000" stroke-width="1.0" stroke-linejoin="round" stroke-linecap="butt" d="m723.8543 115.691605l39.344604 0" fill-rule="evenodd"/><path fill="#000000" stroke="#000000" stroke-width="1.0" stroke-linecap="butt" d="m763.1989 115.691605l-1.1245728 1.1245804l3.0897217 -1.1245804l-3.0897217 -1.124588z" fill-rule="evenodd"/><path fill="#000000" fill-opacity="0.0" d="m22.704165 23.345144l913.7323 0l0 184.69292l-913.7323 0z" fill-rule="evenodd"/><path stroke="#000000" stroke-width="2.0" stroke-linejoin="round" stroke-linecap="butt" d="m22.704165 23.345144l913.7323 0l0 184.69292l-913.7323 0z" fill-rule="evenodd"/><path fill="#000000" d="m36.547913 47.892647q-2.84375 0 -4.5 -1.6875l1.21875 -1.734375q0.5625 0.59375 1.421875 1.015625q0.875 0.421875 1.96875 0.421875q0.953125 0 1.40625 -0.359375q0.453125 -0.359375 0.453125 -0.8125q0 -0.484375 -0.53125 -0.75q-0.515625 -0.28125 -2.53125 -0.765625q-3.078125 -0.734375 -3.078125 -3.09375q0 -1.375 1.109375 -2.3125q1.109375 -0.9375 2.9375 -0.9375q2.546875 0 4.15625 1.484375l-1.265625 1.65625q-1.25 -1.15625 -3.09375 -1.15625q-0.734375 0 -1.140625 0.296875q-0.390625 0.296875 -0.390625 0.765625q0 0.421875 0.453125 0.65625q0.46875 0.234375 1.15625 0.390625l1.46875 0.359375q3.0625 0.796875 3.0625 3.140625q0 1.59375 -1.140625 2.515625q-1.140625 0.90625 -3.140625 0.90625zm9.365646 0q-1.828125 0 -2.96875 -1.140625q-1.125 -1.15625 -1.125 -2.921875q0 -1.734375 1.125 -2.890625q1.140625 -1.15625 2.96875 -1.15625q1.1875 0 1.921875 0.4375q0.75 0.421875 1.125 0.953125l-1.3125 1.25q-0.5625 -0.828125 -1.640625 -0.828125q-0.921875 0 -1.515625 0.625q-0.578125 0.609375 -0.578125 1.609375q0 1.015625 0.578125 1.640625q0.59375 0.625 1.515625 0.625q1.046875 0 1.640625 -0.84375l1.3125 1.234375q-0.375 0.546875 -1.125 0.984375q-0.734375 0.421875 -1.921875 0.421875zm4.390259 -0.1875l0 -7.734375l2.03125 0l0 1.0625q0.40625 -0.515625 1.0625 -0.875q0.671875 -0.375 1.390625 -0.375l0 1.984375l-0.5625 -0.046875q-0.53125 0 -1.09375 0.265625q-0.546875 0.25 -0.796875 0.609375l0 5.109375l-2.03125 0zm6.76001 -8.5625q-0.5 0 -0.859375 -0.34375q-0.359375 -0.359375 -0.359375 -0.875q0 -0.5 0.359375 -0.84375q0.359375 -0.34375 0.859375 -0.34375q0.515625 0 0.859375 0.34375q0.359375 0.34375 0.359375 0.84375q0 0.515625 -0.359375 0.875q-0.34375 0.34375 -0.859375 0.34375zm-1.0 8.5625l0 -7.734375l2.03125 0l0 7.734375l-2.03125 0zm8.454254 0.1875q-1.484375 0 -2.375 -1.171875l0 3.921875l-2.03125 0l0 -10.671875l2.03125 0l0 0.984375q0.921875 -1.171875 2.375 -1.171875q1.53125 0 2.46875 1.078125q0.953125 1.078125 0.953125 2.96875q0 1.859375 -0.9375 2.96875q-0.9375 1.09375 -2.484375 1.09375zm-0.640625 -1.796875q0.875 0 1.40625 -0.625q0.546875 -0.625 0.546875 -1.640625q0 -1.0 -0.546875 -1.609375q-0.53125 -0.625 -1.40625 -0.625q-0.5 0 -1.0 0.265625q-0.484375 0.25 -0.734375 0.609375l0 2.734375q0.25 0.375 0.734375 0.640625q0.5 0.25 1.0 0.25zm8.140518 1.796875q-2.1875 0 -2.1875 -2.109375l0 -4.03125l-1.28125 0l0 -1.78125l1.28125 0l0 -2.109375l2.046875 0l0 2.109375l1.578125 0l0 1.78125l-1.578125 0l0 3.484375q0 0.375 0.1875 0.625q0.1875 0.234375 0.515625 0.234375q0.484375 0 0.703125 -0.234375l0.4375 1.546875q-0.53125 0.484375 -1.703125 0.484375zm9.097763 3.0q-1.1875 -1.34375 -1.859375 -3.25q-0.671875 -1.90625 -0.671875 -3.828125q0 -1.9375 0.671875 -3.828125q0.671875 -1.890625 1.859375 -3.234375l1.28125 0.953125q-0.921875 1.6875 -1.28125 3.109375q-0.34375 1.421875 -0.34375 3.0q0 1.640625 0.359375 3.078125q0.375 1.4375 1.265625 3.0l-1.28125 1.0zm6.205139 -3.0q-1.828125 0 -2.984375 -1.125q-1.140625 -1.125 -1.140625 -2.9375q0 -1.71875 1.140625 -2.875q1.140625 -1.171875 2.859375 -1.171875q1.703125 0 2.78125 1.1875q1.09375 1.171875 1.09375 3.078125l0 0.4375l-5.75 0q0.09375 0.734375 0.65625 1.265625q0.578125 0.53125 1.5625 0.53125q0.484375 0 1.078125 -0.203125q0.59375 -0.203125 0.984375 -0.5625l0.90625 1.3125q-0.578125 0.515625 -1.4375 0.796875q-0.84375 0.265625 -1.75 0.265625zm1.78125 -4.78125q-0.046875 -0.765625 -0.578125 -1.234375q-0.53125 -0.46875 -1.328125 -0.46875q-0.796875 0 -1.3125 0.484375q-0.515625 0.484375 -0.59375 1.21875l3.8125 0zm8.223022 4.59375l-1.765625 -2.609375l-1.78125 2.609375l-2.25 0l2.734375 -3.96875l-2.578125 -3.765625l2.28125 0l1.59375 2.390625l1.578125 -2.390625l2.28125 0l-2.59375 3.765625l2.765625 3.96875l-2.265625 0zm5.8608856 0.1875q-2.1875 0 -2.1875 -2.109375l0 -4.03125l-1.28125 0l0 -1.78125l1.28125 0l0 -2.109375l2.046875 0l0 2.109375l1.578125 0l0 1.78125l-1.578125 0l0 3.484375q0 0.375 0.1875 0.625q0.1875 0.234375 0.515625 0.234375q0.484375 0 0.703125 -0.234375l0.4375 1.546875q-0.53125 0.484375 -1.703125 0.484375zm2.8298798 -0.1875l0 -7.734375l2.03125 0l0 1.0625q0.40625 -0.515625 1.0625 -0.875q0.671875 -0.375 1.390625 -0.375l0 1.984375l-0.5625 -0.046875q-0.53125 0 -1.09375 0.265625q-0.546875 0.25 -0.796875 0.609375l0 5.109375l-2.03125 0zm10.38501 0l0 -0.796875q-0.84375 0.984375 -2.4375 0.984375q-1.125 0 -1.90625 -0.703125q-0.78125 -0.71875 -0.78125 -1.859375q0 -1.125 0.734375 -1.796875q0.75 -0.6875 1.953125 -0.6875q1.65625 0 2.4375 0.9375l0 -1.03125q0 -0.59375 -0.46875 -0.9375q-0.453125 -0.359375 -1.21875 -0.359375q-1.28125 0 -2.25 0.90625l-0.78125 -1.359375q1.421875 -1.21875 3.375 -1.21875q1.640625 0 2.515625 0.765625q0.875 0.75 0.875 2.171875l0 4.984375l-2.046875 0zm-1.625 -1.1875q1.125 0 1.625 -0.671875l0 -0.953125q-0.5 -0.671875 -1.625 -0.671875q-0.609375 0 -1.03125 0.3125q-0.421875 0.296875 -0.421875 0.859375q0 0.53125 0.421875 0.828125q0.421875 0.296875 1.03125 0.296875zm9.281769 1.375q-1.828125 0 -2.96875 -1.140625q-1.125 -1.15625 -1.125 -2.921875q0 -1.734375 1.125 -2.890625q1.140625 -1.15625 2.96875 -1.15625q1.1875 0 1.921875 0.4375q0.75 0.421875 1.125 0.953125l-1.3125 1.25q-0.5625 -0.828125 -1.640625 -0.828125q-0.921875 0 -1.515625 0.625q-0.578125 0.609375 -0.578125 1.609375q0 1.015625 0.578125 1.640625q0.59375 0.625 1.515625 0.625q1.046875 0 1.640625 -0.84375l1.3125 1.234375q-0.375 0.546875 -1.125 0.984375q-0.734375 0.421875 -1.921875 0.421875zm6.968384 0q-2.1875 0 -2.1875 -2.109375l0 -4.03125l-1.28125 0l0 -1.78125l1.28125 0l0 -2.109375l2.046875 0l0 2.109375l1.578125 0l0 1.78125l-1.578125 0l0 3.484375q0 0.375 0.1875 0.625q0.1875 0.234375 0.515625 0.234375q0.484375 0 0.703125 -0.234375l0.4375 1.546875q-0.53125 0.484375 -1.703125 0.484375zm13.519638 -0.1875l-0.796875 -0.796875q-1.296875 0.984375 -2.90625 0.984375q-1.609375 0 -2.5625 -0.8125q-0.953125 -0.8125 -0.953125 -2.265625q0 -1.96875 2.28125 -3.078125q-0.703125 -1.296875 -0.703125 -2.296875q0 -1.109375 0.875 -1.828125q0.890625 -0.734375 2.1875 -0.734375q1.203125 0 2.0 0.625q0.796875 0.625 0.796875 1.625q0 0.875 -0.5625 1.5625q-0.546875 0.671875 -2.0625 1.375q0.203125 0.28125 1.828125 2.234375q0.625 -0.984375 0.96875 -2.0625l1.625 0.75q-0.6875 1.515625 -1.484375 2.578125l2.0625 2.140625l-2.59375 0zm-3.421875 -1.40625q0.78125 0 1.546875 -0.546875l-1.1875 -1.359375l-1.078125 -1.40625q-0.921875 0.671875 -0.921875 1.625q0 0.71875 0.46875 1.203125q0.46875 0.484375 1.171875 0.484375zm-0.1875 -6.8125q0 0.578125 0.46875 1.4375q0.671875 -0.328125 1.125 -0.703125q0.46875 -0.390625 0.46875 -0.984375q0 -0.40625 -0.28125 -0.640625q-0.265625 -0.25 -0.65625 -0.25q-0.46875 0 -0.796875 0.328125q-0.328125 0.3125 -0.328125 0.8125zm11.447647 8.21875l0 -10.671875l2.03125 0l0 10.671875l-2.03125 0zm7.626129 0.1875q-1.796875 0 -2.9375 -1.140625q-1.140625 -1.15625 -1.140625 -2.921875q0 -1.75 1.140625 -2.890625q1.140625 -1.15625 2.9375 -1.15625q1.796875 0 2.9375 1.15625q1.15625 1.140625 1.15625 2.890625q0 1.78125 -1.15625 2.921875q-1.140625 1.140625 -2.9375 1.140625zm0 -1.796875q0.875 0 1.421875 -0.625q0.5625 -0.640625 0.5625 -1.640625q0 -0.953125 -0.5625 -1.59375q-0.546875 -0.640625 -1.421875 -0.640625q-0.84375 0 -1.40625 0.625q-0.5625 0.609375 -0.5625 1.609375q0 1.03125 0.5625 1.65625q0.5625 0.609375 1.40625 0.609375zm10.230896 1.609375l0 -0.796875q-0.84375 0.984375 -2.4375 0.984375q-1.125 0 -1.90625 -0.703125q-0.78125 -0.71875 -0.78125 -1.859375q0 -1.125 0.734375 -1.796875q0.75 -0.6875 1.953125 -0.6875q1.65625 0 2.4375 0.9375l0 -1.03125q0 -0.59375 -0.46875 -0.9375q-0.453125 -0.359375 -1.21875 -0.359375q-1.28125 0 -2.25 0.90625l-0.78125 -1.359375q1.421875 -1.21875 3.375 -1.21875q1.640625 0 2.515625 0.765625q0.875 0.75 0.875 2.171875l0 4.984375l-2.046875 0zm-1.625 -1.1875q1.125 0 1.625 -0.671875l0 -0.953125q-0.5 -0.671875 -1.625 -0.671875q-0.609375 0 -1.03125 0.3125q-0.421875 0.296875 -0.421875 0.859375q0 0.53125 0.421875 0.828125q0.421875 0.296875 1.03125 0.296875zm10.984894 1.1875l0 -0.984375q-0.953125 1.171875 -2.375 1.171875q-1.53125 0 -2.484375 -1.09375q-0.9375 -1.109375 -0.9375 -2.953125q0 -1.828125 0.9375 -2.9375q0.953125 -1.125 2.484375 -1.125q1.453125 0 2.375 1.1875l0 -3.9375l2.0625 0l0 10.671875l-2.0625 0zm-1.75 -1.609375q0.515625 0 1.0 -0.25q0.5 -0.25 0.75 -0.640625l0 -2.734375q-0.25 -0.375 -0.75 -0.625q-0.484375 -0.25 -1.0 -0.25q-0.859375 0 -1.40625 0.625q-0.546875 0.625 -0.546875 1.625q0 0.984375 0.515625 1.625q0.53125 0.625 1.4375 0.625zm5.0791473 3.796875q0.828125 -1.40625 1.234375 -2.8125q0.40625 -1.421875 0.40625 -3.265625q0 -1.75 -0.390625 -3.15625q-0.375 -1.421875 -1.25 -2.953125l1.28125 -0.953125q1.15625 1.265625 1.859375 3.171875q0.703125 1.890625 0.703125 3.890625q0 1.984375 -0.703125 3.890625q-0.703125 1.90625 -1.859375 3.1875l-1.28125 -1.0z" fill-rule="nonzero"/></g></svg>